<svg id="Layer_1" data-name="Layer 1" xmlns="http://www.w3.org/2000/svg" viewBox="0 0 568.35 46.66"><title>ballinakryesore</title><g style="isolation:isolate"><g style="isolation:isolate"><path d="M43.83,9.69v2.44a2.6,2.6,0,0,0,.09.89.57.57,0,0,0,.3.29,2,2,0,0,0,.82.11v.24H40.57v-.24a2.07,2.07,0,0,0,.82-.11A.68.68,0,0,0,41.7,13a3,3,0,0,0,.08-.89V6.47a3,3,0,0,0-.08-.89.63.63,0,0,0-.31-.29,1.93,1.93,0,0,0-.82-.11V4.94h4.06a8.63,8.63,0,0,1,2.31.22,2.27,2.27,0,0,1,1.2.81,2.15,2.15,0,0,1,.46,1.38,2.06,2.06,0,0,1-.69,1.59,2.81,2.81,0,0,1-1.25.6l2.1,3a4.26,4.26,0,0,0,.59.71,1,1,0,0,0,.61.22v.24H47.21l-2.81-4Zm0-4.28V9.23h.36a4.37,4.37,0,0,0,1.34-.16,1.32,1.32,0,0,0,.7-.6,2.12,2.12,0,0,0,.25-1.11A2,2,0,0,0,46,5.89a2,2,0,0,0-1.5-.48Z" transform="translate(0.02)"/></g><g style="isolation:isolate"><path d="M53.1,5.44V9h.17a1.36,1.36,0,0,0,1.2-.52A3.22,3.22,0,0,0,55,6.93h.24V11.5H55a3.43,3.43,0,0,0-.32-1.22,1.41,1.41,0,0,0-.58-.64,2.18,2.18,0,0,0-.95-.17v2.46a3.61,3.61,0,0,0,.06.88.54.54,0,0,0,.23.27,1.17,1.17,0,0,0,.54.1h.52a3.13,3.13,0,0,0,2-.57,3.13,3.13,0,0,0,1.05-1.72h.24l-.39,2.77H49.77v-.24h.29a1.18,1.18,0,0,0,.61-.13.58.58,0,0,0,.26-.31,2.54,2.54,0,0,0,.07-.81V6.43a4.82,4.82,0,0,0,0-.72.59.59,0,0,0-.24-.35,1.09,1.09,0,0,0-.67-.18h-.29V4.94h7.3V7.52h-.24a3.2,3.2,0,0,0-.53-1.36,2,2,0,0,0-.95-.6A5,5,0,0,0,54,5.44Z" transform="translate(0.02)"/><path d="M61.59,9.71v2.42a3,3,0,0,0,.08.89.63.63,0,0,0,.31.29,2,2,0,0,0,.82.11v.24H58.37v-.24a2.14,2.14,0,0,0,.82-.11.7.7,0,0,0,.3-.29,2.7,2.7,0,0,0,.08-.89V6.47a2.7,2.7,0,0,0-.08-.89.63.63,0,0,0-.31-.29,1.9,1.9,0,0,0-.81-.11V4.94h3.8a4.23,4.23,0,0,1,2.69.67,2.08,2.08,0,0,1,.82,1.67,2.12,2.12,0,0,1-.53,1.45,2.68,2.68,0,0,1-1.45.83A10.25,10.25,0,0,1,61.59,9.71Zm0-4.27V9.21h.32a1.57,1.57,0,0,0,1.21-.46,2.13,2.13,0,0,0,.42-1.45,2,2,0,0,0-.42-1.42,1.68,1.68,0,0,0-1.27-.45Z" transform="translate(0.02)"/></g><g style="isolation:isolate"><path d="M66,4.94h4.5v.24h-.22a1.6,1.6,0,0,0-.7.1.56.56,0,0,0-.27.3,2.88,2.88,0,0,0-.08.93v4.27a4.59,4.59,0,0,0,.17,1.55A1.54,1.54,0,0,0,70,13a1.88,1.88,0,0,0,1,.25,2.19,2.19,0,0,0,1.2-.32A1.85,1.85,0,0,0,73,12a5.17,5.17,0,0,0,.25-1.94V6.51a2.13,2.13,0,0,0-.12-.84.8.8,0,0,0-.31-.34A1.85,1.85,0,0,0,72,5.18V4.94h3v.24h-.18a1.13,1.13,0,0,0-.61.15.76.76,0,0,0-.36.44,2.42,2.42,0,0,0-.08.74V9.82a8.88,8.88,0,0,1-.2,2.22,2.53,2.53,0,0,1-1,1.25,3.6,3.6,0,0,1-2.14.58,3.92,3.92,0,0,1-1.75-.31,2.53,2.53,0,0,1-1.19-1.05,3.69,3.69,0,0,1-.35-1.73V6.51a3.37,3.37,0,0,0-.08-.94.68.68,0,0,0-.29-.29,1.73,1.73,0,0,0-.76-.1Z" transform="translate(0.02)"/></g><g style="isolation:isolate"><path d="M80.76,9a4.27,4.27,0,0,1,1.74.7,1.85,1.85,0,0,1,.72,1.51,2,2,0,0,1-.79,1.63,4.43,4.43,0,0,1-2.82.78H75.18v-.24a2.14,2.14,0,0,0,.82-.11.7.7,0,0,0,.3-.29,2.6,2.6,0,0,0,.09-.89V6.47a2.6,2.6,0,0,0-.09-.89A.63.63,0,0,0,76,5.29a1.87,1.87,0,0,0-.81-.11V4.94h4.18a5.91,5.91,0,0,1,2.12.27,2.19,2.19,0,0,1,1,.79,2,2,0,0,1,.36,1.13,1.6,1.6,0,0,1-.45,1.12A3.35,3.35,0,0,1,80.76,9Zm-2.34.32v3.12a.72.72,0,0,0,.18.53.7.7,0,0,0,.52.17,2,2,0,0,0,1-.22,1.66,1.66,0,0,0,.67-.67,2.06,2.06,0,0,0,.23-1,2.12,2.12,0,0,0-.29-1.1,1.5,1.5,0,0,0-.77-.68A4.31,4.31,0,0,0,78.42,9.36Zm0-.5a3.39,3.39,0,0,0,1.34-.2,1.53,1.53,0,0,0,.67-.58,1.83,1.83,0,0,0,.23-1,1.69,1.69,0,0,0-.23-1,1.37,1.37,0,0,0-.65-.56,3.32,3.32,0,0,0-1.36-.19Z" transform="translate(0.02)"/><path d="M91.74,10.6l-.33,3.06H83.67v-.24H84a1.24,1.24,0,0,0,.62-.13.61.61,0,0,0,.25-.31,2.54,2.54,0,0,0,.07-.81V6.43a2.74,2.74,0,0,0-.07-.83.61.61,0,0,0-.28-.3A1.23,1.23,0,0,0,84,5.18h-.28V4.94h4.64v.24h-.37a1.24,1.24,0,0,0-.62.13.68.68,0,0,0-.26.31,2.58,2.58,0,0,0-.07.81V12a2.83,2.83,0,0,0,.08.85.51.51,0,0,0,.3.27,3,3,0,0,0,.78.06h.72A2.49,2.49,0,0,0,90,12.93a2.17,2.17,0,0,0,.8-.77,6.12,6.12,0,0,0,.64-1.56Z" transform="translate(0.02)"/></g><g style="isolation:isolate"><path d="M96.66,13.42v.24H92.1v-.24h.29a1.18,1.18,0,0,0,.61-.13.58.58,0,0,0,.26-.31,2.54,2.54,0,0,0,.07-.81V6.43a2.74,2.74,0,0,0-.07-.83A.66.66,0,0,0,93,5.3a1.23,1.23,0,0,0-.59-.12H92.1V4.94h4.56v.24h-.29a1.23,1.23,0,0,0-.61.13.62.62,0,0,0-.26.31,2.58,2.58,0,0,0-.07.81v5.74a2.74,2.74,0,0,0,.07.83.69.69,0,0,0,.29.3,1.22,1.22,0,0,0,.58.12Z" transform="translate(0.02)"/></g><g style="isolation:isolate"><path d="M102.13,8.28l3.06,3.84a5.32,5.32,0,0,0,1.12,1.1,1.45,1.45,0,0,0,.72.2v.24h-4.54v-.24a1.25,1.25,0,0,0,.56-.13.31.31,0,0,0,.12-.24,2.3,2.3,0,0,0-.59-1l-2-2.51-.32.27v2.38a2.74,2.74,0,0,0,.08.85.66.66,0,0,0,.29.28,1.54,1.54,0,0,0,.7.12v.24H96.94v-.24h.29a1.23,1.23,0,0,0,.61-.13.61.61,0,0,0,.25-.31,2.54,2.54,0,0,0,.07-.81V6.43a2.74,2.74,0,0,0-.07-.83.61.61,0,0,0-.28-.3,1.22,1.22,0,0,0-.58-.12h-.29V4.94h4.34v.24a1.39,1.39,0,0,0-.68.13.6.6,0,0,0-.26.3,2.54,2.54,0,0,0-.08.82V9.15l3.24-2.62c.45-.37.67-.66.67-.88a.42.42,0,0,0-.28-.38,2,2,0,0,0-.7-.09V4.94h3.4v.24a1.82,1.82,0,0,0-.71.16,10.09,10.09,0,0,0-1.2.89Z" transform="translate(0.02)"/></g><g style="isolation:isolate"><path d="M112.05,11.18H109l-.37.85a1.85,1.85,0,0,0-.18.7.59.59,0,0,0,.3.54,2.34,2.34,0,0,0,.85.15v.24h-2.9v-.24a1.2,1.2,0,0,0,.77-.39,5,5,0,0,0,.75-1.31l3.12-7h.12l3.15,7.15a4.22,4.22,0,0,0,.74,1.28,1,1,0,0,0,.61.23v.24h-4.22v-.24h.18a1.26,1.26,0,0,0,.71-.14.33.33,0,0,0,.14-.29.67.67,0,0,0,0-.24,3.62,3.62,0,0,0-.19-.49Zm-.22-.48-1.3-3-1.34,3Z" transform="translate(0.02)"/></g><g style="isolation:isolate"><path d="M121.58,5.44V9h.17a1.35,1.35,0,0,0,1.2-.52,3.22,3.22,0,0,0,.48-1.54h.24V11.5h-.24a3.43,3.43,0,0,0-.32-1.22,1.41,1.41,0,0,0-.58-.64,2.18,2.18,0,0,0-1-.17v2.46a3.61,3.61,0,0,0,.06.88.54.54,0,0,0,.23.27,1.17,1.17,0,0,0,.54.1h.52a3.13,3.13,0,0,0,2-.57,3.13,3.13,0,0,0,1-1.72h.24l-.39,2.77h-7.54v-.24h.29a1.18,1.18,0,0,0,.61-.13.58.58,0,0,0,.26-.31,2.54,2.54,0,0,0,.07-.81V6.43a4.82,4.82,0,0,0,0-.72.59.59,0,0,0-.24-.35,1.09,1.09,0,0,0-.67-.18h-.29V4.94h7.3V7.52h-.24a3.2,3.2,0,0,0-.53-1.36,2,2,0,0,0-1-.6,5,5,0,0,0-1.35-.12Z" transform="translate(0.02)"/></g><g style="isolation:isolate"><path d="M135.54,4.74l.07,2.91h-.26a2.93,2.93,0,0,0-.92-1.76,2.31,2.31,0,0,0-1.57-.67,1.49,1.49,0,0,0-1,.35,1.08,1.08,0,0,0-.39.81,1,1,0,0,0,.14.52,2,2,0,0,0,.6.59,12.68,12.68,0,0,0,1.39.76,6.21,6.21,0,0,1,2.07,1.42,2.38,2.38,0,0,1,.52,1.53,2.47,2.47,0,0,1-.85,1.88,3.09,3.09,0,0,1-2.16.79,3.21,3.21,0,0,1-.78-.09,5.82,5.82,0,0,1-.92-.31,1.27,1.27,0,0,0-.51-.13.59.59,0,0,0-.35.13.82.82,0,0,0-.3.39H130V10.57h.24a3.81,3.81,0,0,0,1.09,2.12,2.55,2.55,0,0,0,1.74.73,1.57,1.57,0,0,0,1.14-.4,1.18,1.18,0,0,0,.43-.91,1.2,1.2,0,0,0-.16-.6A2.1,2.1,0,0,0,134,11a8,8,0,0,0-1.18-.68,10,10,0,0,1-1.71-1,3,3,0,0,1-.8-.92,2.24,2.24,0,0,1-.28-1.12,2.37,2.37,0,0,1,.76-1.78,2.71,2.71,0,0,1,1.93-.73,3.68,3.68,0,0,1,.82.1,5,5,0,0,1,.74.29,1.71,1.71,0,0,0,.61.21.36.36,0,0,0,.26-.1,1.38,1.38,0,0,0,.18-.5Z" transform="translate(0.02)"/></g><g style="isolation:isolate"><path d="M140,9.47v2.7a2.62,2.62,0,0,0,.08.83.61.61,0,0,0,.28.3,1.23,1.23,0,0,0,.59.12h.29v.24H136.7v-.24H137a1.23,1.23,0,0,0,.61-.13.61.61,0,0,0,.25-.31,2.54,2.54,0,0,0,.07-.81V6.43a2.74,2.74,0,0,0-.07-.83.61.61,0,0,0-.28-.3,1.22,1.22,0,0,0-.58-.12h-.29V4.94h4.56v.24H141a1.18,1.18,0,0,0-.61.13.64.64,0,0,0-.27.31,2.58,2.58,0,0,0-.07.81V8.9h3.08V6.43A2.74,2.74,0,0,0,143,5.6a.64.64,0,0,0-.29-.3,1.19,1.19,0,0,0-.58-.12h-.29V4.94h4.56v.24h-.29a1.2,1.2,0,0,0-.61.13.62.62,0,0,0-.26.31,2.58,2.58,0,0,0-.07.81v5.74a2.74,2.74,0,0,0,.07.83.64.64,0,0,0,.29.3,1.19,1.19,0,0,0,.58.12h.29v.24h-4.56v-.24h.29a1.2,1.2,0,0,0,.61-.13A.62.62,0,0,0,143,13a2.54,2.54,0,0,0,.07-.81V9.47Z" transform="translate(0.02)"/><path d="M152.7,13.74a2.39,2.39,0,0,0,.92,1.28,2.64,2.64,0,0,0,1.56.43,2.59,2.59,0,0,0,.54,0v.39A6.8,6.8,0,0,1,154,16a4,4,0,0,1-2.14-.59,3.6,3.6,0,0,1-1.42-1.71,4.35,4.35,0,0,1-2.55-1.55,4.54,4.54,0,0,1-1-2.9A4.34,4.34,0,0,1,148.23,6a4.9,4.9,0,0,1,6.65,0,4.4,4.4,0,0,1,1.3,3.25,4.54,4.54,0,0,1-1,3A4,4,0,0,1,152.7,13.74Zm-1.15-8.51a2,2,0,0,0-1.79,1.2,6.39,6.39,0,0,0-.52,2.88,5.65,5.65,0,0,0,.79,3.32,1.78,1.78,0,0,0,1.52.75,1.82,1.82,0,0,0,1.53-.74,5.37,5.37,0,0,0,.79-3.19,6.9,6.9,0,0,0-.5-3A2,2,0,0,0,151.55,5.23Z" transform="translate(0.02)"/></g><g style="isolation:isolate"><path d="M161.1,13.42v.24h-4.56v-.24h.29a1.18,1.18,0,0,0,.61-.13.58.58,0,0,0,.26-.31,2.54,2.54,0,0,0,.07-.81V6.43a2.74,2.74,0,0,0-.07-.83.66.66,0,0,0-.28-.3,1.23,1.23,0,0,0-.59-.12h-.29V4.94h4.56v.24h-.29a1.23,1.23,0,0,0-.61.13.62.62,0,0,0-.26.31,2.58,2.58,0,0,0-.07.81v5.74a2.74,2.74,0,0,0,.07.83.69.69,0,0,0,.29.3,1.22,1.22,0,0,0,.58.12Z" transform="translate(0.02)"/></g><g style="isolation:isolate"><path d="M164.64,9.71v2.42a3,3,0,0,0,.08.89.63.63,0,0,0,.31.29,2,2,0,0,0,.82.11v.24h-4.44v-.24a2.07,2.07,0,0,0,.82-.11.68.68,0,0,0,.31-.29,3,3,0,0,0,.08-.89V6.47a3,3,0,0,0-.08-.89.63.63,0,0,0-.31-.29,1.93,1.93,0,0,0-.82-.11V4.94h3.8a4.26,4.26,0,0,1,2.7.67,2.08,2.08,0,0,1,.82,1.67,2.12,2.12,0,0,1-.53,1.45,2.68,2.68,0,0,1-1.45.83A10.25,10.25,0,0,1,164.64,9.71Zm0-4.27V9.21H165a1.57,1.57,0,0,0,1.21-.46,2.13,2.13,0,0,0,.42-1.45,2,2,0,0,0-.42-1.42,1.68,1.68,0,0,0-1.27-.45Z" transform="translate(0.02)"/><path d="M172.45,5.44V9h.17a1.38,1.38,0,0,0,1.21-.52,3.34,3.34,0,0,0,.47-1.54h.25V11.5h-.25a3.43,3.43,0,0,0-.32-1.22,1.41,1.41,0,0,0-.58-.64,2.15,2.15,0,0,0-1-.17v2.46a3.61,3.61,0,0,0,.06.88.54.54,0,0,0,.23.27,1.17,1.17,0,0,0,.54.1h.52a3.13,3.13,0,0,0,2-.57,3.2,3.2,0,0,0,1.06-1.72h.23l-.39,2.77h-7.53v-.24h.28a1.24,1.24,0,0,0,.62-.13.61.61,0,0,0,.25-.31,2.54,2.54,0,0,0,.07-.81V6.43a4.82,4.82,0,0,0,0-.72.59.59,0,0,0-.24-.35,1.09,1.09,0,0,0-.67-.18h-.28V4.94h7.29V7.52h-.24a3.21,3.21,0,0,0-.52-1.36,2,2,0,0,0-1-.6,5,5,0,0,0-1.35-.12Zm-.39-3.07a.81.81,0,0,1,.61.25.86.86,0,0,1,0,1.21.86.86,0,0,1-1.46-.61.85.85,0,0,1,.85-.85Zm2.41,0a.82.82,0,0,1,.61.25.85.85,0,0,1,.24.6.82.82,0,0,1-.25.61.8.8,0,0,1-.6.25.82.82,0,0,1-.61-.25.86.86,0,0,1,0-1.21A.82.82,0,0,1,174.47,2.37Z" transform="translate(0.02)"/></g><g style="isolation:isolate"><path d="M180.78,9.69v2.44a3,3,0,0,0,.08.89.63.63,0,0,0,.31.29,2,2,0,0,0,.82.11v.24h-4.47v-.24a2.07,2.07,0,0,0,.82-.11.68.68,0,0,0,.31-.29,3,3,0,0,0,.08-.89V6.47a3,3,0,0,0-.08-.89.63.63,0,0,0-.31-.29,2,2,0,0,0-.82-.11V4.94h4.06a8.63,8.63,0,0,1,2.31.22,2.27,2.27,0,0,1,1.2.81,2.15,2.15,0,0,1,.46,1.38,2,2,0,0,1-.7,1.59,2.72,2.72,0,0,1-1.24.6l2.1,3a3.8,3.8,0,0,0,.59.71,1,1,0,0,0,.61.22v.24h-2.75l-2.81-4Zm0-4.28V9.23h.36a4.37,4.37,0,0,0,1.34-.16,1.32,1.32,0,0,0,.7-.6,2.12,2.12,0,0,0,.25-1.11A2,2,0,0,0,183,5.89a2,2,0,0,0-1.5-.48Z" transform="translate(0.02)"/><path d="M191.35,13.42v.24h-4.56v-.24h.29a1.2,1.2,0,0,0,.61-.13A.62.62,0,0,0,188,13a2.54,2.54,0,0,0,.07-.81V6.43A2.74,2.74,0,0,0,188,5.6a.64.64,0,0,0-.29-.3,1.19,1.19,0,0,0-.58-.12h-.29V4.94h4.56v.24h-.29a1.2,1.2,0,0,0-.61.13.62.62,0,0,0-.26.31,2.58,2.58,0,0,0-.07.81v5.74a2.74,2.74,0,0,0,.07.83.69.69,0,0,0,.29.3,1.19,1.19,0,0,0,.58.12Z" transform="translate(0.02)"/><path d="M197.58,4.74l.07,2.91h-.27a3,3,0,0,0-.91-1.76,2.35,2.35,0,0,0-1.58-.67,1.49,1.49,0,0,0-1,.35,1.07,1.07,0,0,0-.38.81,1,1,0,0,0,.13.52,2.11,2.11,0,0,0,.6.59,13.79,13.79,0,0,0,1.39.76,6.1,6.1,0,0,1,2.07,1.42,2.39,2.39,0,0,1,.53,1.53,2.48,2.48,0,0,1-.86,1.88,3.07,3.07,0,0,1-2.16.79,3.33,3.33,0,0,1-.78-.09,5.82,5.82,0,0,1-.92-.31,1.27,1.27,0,0,0-.51-.13.61.61,0,0,0-.35.13.88.88,0,0,0-.3.39h-.24V10.57h.24a3.81,3.81,0,0,0,1.09,2.12,2.59,2.59,0,0,0,1.74.73,1.61,1.61,0,0,0,1.15-.4,1.2,1.2,0,0,0,.26-1.51,2.1,2.1,0,0,0-.5-.55,8,8,0,0,0-1.18-.68,10.41,10.41,0,0,1-1.71-1,3,3,0,0,1-.8-.92,2.24,2.24,0,0,1-.28-1.12,2.37,2.37,0,0,1,.76-1.78,2.72,2.72,0,0,1,1.93-.73,3.68,3.68,0,0,1,.82.1,4.61,4.61,0,0,1,.74.29,1.71,1.71,0,0,0,.61.21.36.36,0,0,0,.26-.1,1.08,1.08,0,0,0,.18-.5Z" transform="translate(0.02)"/></g><g style="isolation:isolate"><path d="M201.85,5.44V9H202a1.36,1.36,0,0,0,1.2-.52,3.22,3.22,0,0,0,.48-1.54h.24V11.5h-.24a3.43,3.43,0,0,0-.32-1.22,1.41,1.41,0,0,0-.58-.64,2.18,2.18,0,0,0-1-.17v2.46a3.61,3.61,0,0,0,.06.88.54.54,0,0,0,.23.27,1.17,1.17,0,0,0,.54.1h.52a3.13,3.13,0,0,0,2-.57,3.13,3.13,0,0,0,1.05-1.72h.24l-.39,2.77h-7.54v-.24h.29a1.18,1.18,0,0,0,.61-.13.58.58,0,0,0,.26-.31,2.54,2.54,0,0,0,.07-.81V6.43a4.82,4.82,0,0,0,0-.72.59.59,0,0,0-.24-.35,1.09,1.09,0,0,0-.67-.18h-.29V4.94h7.3V7.52h-.24a3.2,3.2,0,0,0-.53-1.36,2,2,0,0,0-1-.6,5,5,0,0,0-1.35-.12Zm-.39-3.07a.82.82,0,0,1,.61.25.86.86,0,0,1,0,1.21.82.82,0,0,1-.61.25.8.8,0,0,1-.6-.25.86.86,0,0,1,0-1.21A.8.8,0,0,1,201.46,2.37Zm2.41,0a.82.82,0,0,1,.61.25.85.85,0,0,1,.24.6.86.86,0,0,1-1.46.61.86.86,0,0,1,0-1.21A.82.82,0,0,1,203.87,2.37Z" transform="translate(0.02)"/></g></g><g style="isolation:isolate"><g style="isolation:isolate"><path d="M45.82,31.74l3.06,3.84A5.32,5.32,0,0,0,50,36.68a1.45,1.45,0,0,0,.72.2v.24H46.18v-.24a1.25,1.25,0,0,0,.56-.13.31.31,0,0,0,.12-.24,2.3,2.3,0,0,0-.59-1l-2-2.51-.32.27v2.38a2.74,2.74,0,0,0,.08.85.66.66,0,0,0,.29.28,1.54,1.54,0,0,0,.7.12v.24H40.63v-.24h.29a1.23,1.23,0,0,0,.61-.13.61.61,0,0,0,.25-.31,2.54,2.54,0,0,0,.07-.81V29.89a2.74,2.74,0,0,0-.07-.83.61.61,0,0,0-.28-.3,1.22,1.22,0,0,0-.58-.12h-.29V28.4H45v.24a1.39,1.39,0,0,0-.68.13.6.6,0,0,0-.26.3,2.54,2.54,0,0,0-.08.82v2.72L47.19,30c.45-.37.67-.66.67-.88a.42.42,0,0,0-.28-.38,2,2,0,0,0-.7-.09V28.4h3.4v.24a1.82,1.82,0,0,0-.71.16,10.09,10.09,0,0,0-1.2.89Z" transform="translate(0.02)"/><path d="M55.4,28.28a4.32,4.32,0,0,1,4.68,4.45,4.65,4.65,0,0,1-1,2.92,4.31,4.31,0,0,1-3.63,1.67,4.4,4.4,0,0,1-3.64-1.6,4.58,4.58,0,0,1-1-3,4.34,4.34,0,0,1,1.32-3.23A4.18,4.18,0,0,1,55.4,28.28Zm.07.41a2,2,0,0,0-1.82,1.22,6.68,6.68,0,0,0-.5,2.88,5.61,5.61,0,0,0,.78,3.3,1.8,1.8,0,0,0,1.53.75,1.89,1.89,0,0,0,1.11-.32,2.74,2.74,0,0,0,.88-1.32,7.33,7.33,0,0,0,.31-2.36,7.64,7.64,0,0,0-.32-2.58A2.52,2.52,0,0,0,56.62,29,2,2,0,0,0,55.47,28.69Z" transform="translate(0.02)"/><path d="M66.57,34.15l2.36-5.75h3.55v.24H72.2a1.24,1.24,0,0,0-.62.13.62.62,0,0,0-.25.31,2.5,2.5,0,0,0-.07.8v5.75a2.74,2.74,0,0,0,.07.83.59.59,0,0,0,.29.3,1.19,1.19,0,0,0,.58.12h.28v.24H67.93v-.24h.28a1.22,1.22,0,0,0,.62-.13.68.68,0,0,0,.26-.31,2.54,2.54,0,0,0,.07-.81V29.17l-3.34,7.95h-.16l-3.39-7.9v6.14a6,6,0,0,0,0,.8.89.89,0,0,0,.36.52,1.57,1.57,0,0,0,.88.2v.24h-3v-.24h.09a1.23,1.23,0,0,0,.54-.09.89.89,0,0,0,.37-.27,1.08,1.08,0,0,0,.2-.47,5.69,5.69,0,0,0,0-.65V29.88a3.14,3.14,0,0,0-.07-.83.73.73,0,0,0-.29-.29,1.23,1.23,0,0,0-.59-.12h-.27V28.4h3.56Z" transform="translate(0.02)"/></g><g style="isolation:isolate"><path d="M77.13,36.88v.24H72.57v-.24h.29a1.18,1.18,0,0,0,.61-.13.58.58,0,0,0,.26-.31,2.54,2.54,0,0,0,.07-.81V29.89a2.74,2.74,0,0,0-.07-.83.66.66,0,0,0-.28-.3,1.23,1.23,0,0,0-.59-.12h-.29V28.4h4.56v.24h-.29a1.23,1.23,0,0,0-.61.13.62.62,0,0,0-.26.31,2.58,2.58,0,0,0-.07.81v5.74a2.74,2.74,0,0,0,.07.83.69.69,0,0,0,.29.3,1.22,1.22,0,0,0,.58.12Z" transform="translate(0.02)"/><path d="M83.36,28.2l.07,2.91h-.26a3,3,0,0,0-.92-1.76,2.33,2.33,0,0,0-1.58-.67,1.5,1.5,0,0,0-1,.35,1.11,1.11,0,0,0-.38.81,1,1,0,0,0,.13.52A2.25,2.25,0,0,0,80,31a13.2,13.2,0,0,0,1.4.76,6,6,0,0,1,2.06,1.42A2.39,2.39,0,0,1,84,34.66a2.47,2.47,0,0,1-.85,1.88,3.1,3.1,0,0,1-2.17.79,3.33,3.33,0,0,1-.78-.09,5.44,5.44,0,0,1-.91-.31,1.35,1.35,0,0,0-.51-.13.64.64,0,0,0-.36.13.88.88,0,0,0-.3.39h-.24V34h.24a3.81,3.81,0,0,0,1.09,2.12,2.59,2.59,0,0,0,1.74.73,1.61,1.61,0,0,0,1.15-.4A1.17,1.17,0,0,0,82.33,35a1.94,1.94,0,0,0-.5-.55,7.5,7.5,0,0,0-1.18-.68,10.87,10.87,0,0,1-1.71-1,3.12,3.12,0,0,1-.8-.92,2.24,2.24,0,0,1-.28-1.12,2.34,2.34,0,0,1,.77-1.78,2.7,2.7,0,0,1,1.92-.73,3.77,3.77,0,0,1,.83.1,5,5,0,0,1,.73.29,1.78,1.78,0,0,0,.61.21.41.41,0,0,0,.27-.1,1.38,1.38,0,0,0,.18-.5Z" transform="translate(0.02)"/><path d="M89.06,36.88v.24H84.5v-.24h.29a1.23,1.23,0,0,0,.61-.13.61.61,0,0,0,.25-.31,2.54,2.54,0,0,0,.07-.81V29.89a2.74,2.74,0,0,0-.07-.83.61.61,0,0,0-.28-.3,1.22,1.22,0,0,0-.58-.12H84.5V28.4h4.56v.24h-.29a1.18,1.18,0,0,0-.61.13.64.64,0,0,0-.27.31,2.58,2.58,0,0,0-.07.81v5.74a2.62,2.62,0,0,0,.08.83.61.61,0,0,0,.28.3,1.23,1.23,0,0,0,.59.12Z" transform="translate(0.02)"/></g><g style="isolation:isolate"><path d="M94,28.28a4.32,4.32,0,0,1,4.68,4.45,4.65,4.65,0,0,1-1,2.92,4.32,4.32,0,0,1-3.63,1.67,4.4,4.4,0,0,1-3.64-1.6,4.59,4.59,0,0,1-1-3,4.31,4.31,0,0,1,1.33-3.23A4.18,4.18,0,0,1,94,28.28Zm.07.41a2,2,0,0,0-1.82,1.22,6.68,6.68,0,0,0-.5,2.88,5.61,5.61,0,0,0,.78,3.3,1.79,1.79,0,0,0,1.53.75,1.89,1.89,0,0,0,1.11-.32A2.74,2.74,0,0,0,96,35.2a7.33,7.33,0,0,0,.31-2.36A7.64,7.64,0,0,0,96,30.26,2.52,2.52,0,0,0,95.21,29,2,2,0,0,0,94.06,28.69Z" transform="translate(0.02)"/></g><g style="isolation:isolate"><path d="M102.11,28.4l4.3,5.41V30.06a1.77,1.77,0,0,0-.22-1.06,1.24,1.24,0,0,0-1-.36V28.4H108v.24a2.43,2.43,0,0,0-.74.18.75.75,0,0,0-.3.37,2.55,2.55,0,0,0-.1.87v7.26h-.22l-5.9-7.26V35.6a1.24,1.24,0,0,0,.35,1,1.28,1.28,0,0,0,.78.26h.21v.24H99v-.24a1.07,1.07,0,0,0,1.28-1.28V29.45l-.18-.23a1.79,1.79,0,0,0-.49-.46,1.56,1.56,0,0,0-.61-.12V28.4Z" transform="translate(0.02)"/><path d="M112.9,36.88v.24h-4.56v-.24h.29a1.2,1.2,0,0,0,.61-.13.62.62,0,0,0,.26-.31,2.54,2.54,0,0,0,.07-.81V29.89a2.74,2.74,0,0,0-.07-.83.64.64,0,0,0-.29-.3,1.17,1.17,0,0,0-.58-.12h-.29V28.4h4.56v.24h-.29a1.2,1.2,0,0,0-.61.13.62.62,0,0,0-.26.31,2.58,2.58,0,0,0-.07.81v5.74a2.74,2.74,0,0,0,.07.83.69.69,0,0,0,.29.3,1.19,1.19,0,0,0,.58.12Z" transform="translate(0.02)"/></g><g style="isolation:isolate"><path d="M122.08,37.2a2.39,2.39,0,0,0,.92,1.28,2.64,2.64,0,0,0,1.56.43,2.59,2.59,0,0,0,.54,0v.39a6.8,6.8,0,0,1-1.73.25,4,4,0,0,1-2.14-.59,3.6,3.6,0,0,1-1.42-1.71,4.35,4.35,0,0,1-2.55-1.55,4.55,4.55,0,0,1-1-2.9,4.35,4.35,0,0,1,1.32-3.25,4.9,4.9,0,0,1,6.65,0,4.4,4.4,0,0,1,1.3,3.25,4.54,4.54,0,0,1-1,3A4,4,0,0,1,122.08,37.2Zm-1.15-8.51a2,2,0,0,0-1.79,1.2,6.39,6.39,0,0,0-.52,2.88,5.59,5.59,0,0,0,.79,3.31,1.76,1.76,0,0,0,1.52.76,1.78,1.78,0,0,0,1.52-.74,5.3,5.3,0,0,0,.8-3.19,6.9,6.9,0,0,0-.5-3A2,2,0,0,0,120.93,28.69Z" transform="translate(0.02)"/><path d="M129.35,28.9v3.55h.17a1.35,1.35,0,0,0,1.2-.52,3.22,3.22,0,0,0,.48-1.54h.24V35h-.24a3.43,3.43,0,0,0-.32-1.22,1.41,1.41,0,0,0-.58-.64,2.18,2.18,0,0,0-1-.17v2.46a3.61,3.61,0,0,0,.06.88.54.54,0,0,0,.23.27,1.17,1.17,0,0,0,.54.1h.52a2.81,2.81,0,0,0,3-2.29H134l-.39,2.77H126v-.24h.29a1.18,1.18,0,0,0,.61-.13.58.58,0,0,0,.26-.31,2.54,2.54,0,0,0,.07-.81V29.89a4.82,4.82,0,0,0,0-.72.59.59,0,0,0-.24-.35,1.09,1.09,0,0,0-.67-.18H126V28.4h7.3V31h-.24a3.2,3.2,0,0,0-.53-1.36,2,2,0,0,0-1-.6,5,5,0,0,0-1.35-.12Z" transform="translate(0.02)"/></g><g style="isolation:isolate"><path d="M137.46,28.4l4.3,5.41V30.06a1.77,1.77,0,0,0-.22-1.06,1.24,1.24,0,0,0-1-.36V28.4h2.88v.24a2.43,2.43,0,0,0-.74.18.75.75,0,0,0-.3.37,2.55,2.55,0,0,0-.1.87v7.26H142l-5.9-7.26V35.6a1.24,1.24,0,0,0,.35,1,1.28,1.28,0,0,0,.78.26h.21v.24h-3.09v-.24a1.07,1.07,0,0,0,1.28-1.28V29.45l-.18-.23a1.79,1.79,0,0,0-.49-.46,1.56,1.56,0,0,0-.61-.12V28.4Z" transform="translate(0.02)"/><path d="M143.47,37.12v-.24h.29a1.14,1.14,0,0,0,.58-.12.66.66,0,0,0,.3-.32,3,3,0,0,0,.06-.81V29.89a3.14,3.14,0,0,0-.07-.83.69.69,0,0,0-.29-.3,1.19,1.19,0,0,0-.58-.12h-.29V28.4h3.9a6.36,6.36,0,0,1,2.52.42,3.77,3.77,0,0,1,1.76,1.58,4.74,4.74,0,0,1,.6,2.39,4.65,4.65,0,0,1-.29,1.69,3.83,3.83,0,0,1-.77,1.28,3.56,3.56,0,0,1-1.08.81,5.89,5.89,0,0,1-1.5.47,7.21,7.21,0,0,1-1.24.08Zm3.32-8.22v6.8a2,2,0,0,0,.06.66.39.39,0,0,0,.17.19,1.09,1.09,0,0,0,.5.09,1.94,1.94,0,0,0,1.64-.73,4.94,4.94,0,0,0,.77-3.07,5.78,5.78,0,0,0-.52-2.68,2.23,2.23,0,0,0-1.08-1.07A4.13,4.13,0,0,0,146.79,28.9Z" transform="translate(0.02)"/><path d="M155.91,33.15v2.44a2.6,2.6,0,0,0,.09.89.61.61,0,0,0,.3.29,2,2,0,0,0,.82.11v.24h-4.46v-.24a2.14,2.14,0,0,0,.82-.11.7.7,0,0,0,.3-.29,2.7,2.7,0,0,0,.08-.89V29.93a2.7,2.7,0,0,0-.08-.89.63.63,0,0,0-.31-.29,1.9,1.9,0,0,0-.81-.11V28.4h4.05a8.63,8.63,0,0,1,2.31.22,2.27,2.27,0,0,1,1.2.81,2.15,2.15,0,0,1,.46,1.38A2.06,2.06,0,0,1,160,32.4a2.82,2.82,0,0,1-1.24.6l2.09,3a4.26,4.26,0,0,0,.59.71,1,1,0,0,0,.61.22v.24h-2.75l-2.81-4Zm0-4.28v3.82h.37a4.34,4.34,0,0,0,1.33-.16,1.32,1.32,0,0,0,.7-.6,2.12,2.12,0,0,0,.26-1.11,1.7,1.7,0,0,0-2-1.95Z" transform="translate(0.02)"/></g><g style="isolation:isolate"><path d="M166.82,28.28a4.32,4.32,0,0,1,4.68,4.45,4.65,4.65,0,0,1-1,2.92,4.32,4.32,0,0,1-3.63,1.67,4.4,4.4,0,0,1-3.64-1.6,4.59,4.59,0,0,1-1-3,4.34,4.34,0,0,1,1.33-3.23A4.18,4.18,0,0,1,166.82,28.28Zm.07.41a2,2,0,0,0-1.82,1.22,6.68,6.68,0,0,0-.5,2.88,5.61,5.61,0,0,0,.78,3.3,1.79,1.79,0,0,0,1.53.75,1.89,1.89,0,0,0,1.11-.32,2.74,2.74,0,0,0,.88-1.32,7.33,7.33,0,0,0,.31-2.36,7.64,7.64,0,0,0-.32-2.58A2.52,2.52,0,0,0,168,29,2,2,0,0,0,166.89,28.69Z" transform="translate(0.02)"/></g><g style="isolation:isolate"><path d="M175.16,33.15v2.44a2.6,2.6,0,0,0,.09.89.57.57,0,0,0,.3.29,2,2,0,0,0,.82.11v.24H171.9v-.24a2.07,2.07,0,0,0,.82-.11.68.68,0,0,0,.31-.29,3,3,0,0,0,.08-.89V29.93A3,3,0,0,0,173,29a.63.63,0,0,0-.31-.29,1.93,1.93,0,0,0-.82-.11V28.4H176a8.63,8.63,0,0,1,2.31.22,2.27,2.27,0,0,1,1.2.81,2.15,2.15,0,0,1,.46,1.38,2.06,2.06,0,0,1-.69,1.59A2.81,2.81,0,0,1,178,33l2.1,3a4.26,4.26,0,0,0,.59.71,1,1,0,0,0,.61.22v.24h-2.75l-2.81-4Zm0-4.28v3.82h.36a4.37,4.37,0,0,0,1.34-.16,1.32,1.32,0,0,0,.7-.6,2.12,2.12,0,0,0,.25-1.11,1.69,1.69,0,0,0-2-1.95Z" transform="translate(0.02)"/><path d="M188.76,36.88v.24H184.2v-.24h.29a1.2,1.2,0,0,0,.61-.13.62.62,0,0,0,.26-.31,2.54,2.54,0,0,0,.07-.81V29.89a2.74,2.74,0,0,0-.07-.83.64.64,0,0,0-.29-.3,1.19,1.19,0,0,0-.58-.12h-.29V28.4h4.56v.24h-.29a1.2,1.2,0,0,0-.61.13.62.62,0,0,0-.26.31,2.58,2.58,0,0,0-.07.81v5.74a2.74,2.74,0,0,0,.07.83.69.69,0,0,0,.29.3,1.19,1.19,0,0,0,.58.12Z" transform="translate(0.02)"/></g><g style="isolation:isolate"><path d="M199.67,28.4l-5.13,8.23h1.66a6.19,6.19,0,0,0,1.65-.15,2.85,2.85,0,0,0,1.32-.85,3.55,3.55,0,0,0,.76-1.66h.25l-.35,3.15h-8L197,28.88h-1.29a7,7,0,0,0-1,0,2.68,2.68,0,0,0-.85.33,2.16,2.16,0,0,0-.65.66,3.58,3.58,0,0,0-.41,1h-.24l.24-2.55Z" transform="translate(0.02)"/><path d="M209.24,28.2v3.07H209a4,4,0,0,0-1.29-1.91,3.06,3.06,0,0,0-1.89-.66,2.49,2.49,0,0,0-1.63.55,3,3,0,0,0-.91,1.54,7.56,7.56,0,0,0-.28,2,7.27,7.27,0,0,0,.3,2.2,2.5,2.5,0,0,0,1,1.39,2.7,2.7,0,0,0,1.56.45,3.69,3.69,0,0,0,.65-.07,4.71,4.71,0,0,0,.68-.2V34.76a2.24,2.24,0,0,0-.07-.67.67.67,0,0,0-.3-.27,1.07,1.07,0,0,0-.53-.12H206v-.24h4.24v.24a1.72,1.72,0,0,0-.67.13.69.69,0,0,0-.3.33,2.23,2.23,0,0,0,0,.6v1.81a8.86,8.86,0,0,1-1.74.57,9.67,9.67,0,0,1-1.88.19,5.54,5.54,0,0,1-2.06-.34,5.18,5.18,0,0,1-1.45-.89,4.44,4.44,0,0,1-1-1.24,4.31,4.31,0,0,1-.45-2,4.46,4.46,0,0,1,1.39-3.33,4.78,4.78,0,0,1,3.48-1.36,6,6,0,0,1,1.17.11,5.71,5.71,0,0,1,.91.29,3.72,3.72,0,0,0,.75.24.52.52,0,0,0,.34-.13,1.24,1.24,0,0,0,.28-.5Z" transform="translate(0.02)"/><path d="M212,28.64V28.4h4.64v.24h-.28a1.22,1.22,0,0,0-.62.13.68.68,0,0,0-.26.31,2.58,2.58,0,0,0-.07.81v4.27a4.82,4.82,0,0,1-.25,1.83,2.18,2.18,0,0,1-.89.95,3,3,0,0,1-1.54.38,2.63,2.63,0,0,1-1.78-.58,1.68,1.68,0,0,1-.68-1.28,1,1,0,0,1,.28-.73.89.89,0,0,1,.67-.28.93.93,0,0,1,.66.25.83.83,0,0,1,.27.62.75.75,0,0,1-.05.31,1.41,1.41,0,0,1-.2.33.78.78,0,0,0-.17.37.35.35,0,0,0,.16.29,1.08,1.08,0,0,0,.64.18.76.76,0,0,0,.46-.14.79.79,0,0,0,.25-.44,10.53,10.53,0,0,0,.07-1.67V29.89a2.74,2.74,0,0,0-.07-.83.69.69,0,0,0-.29-.3,1.19,1.19,0,0,0-.58-.12Z" transform="translate(0.02)"/><path d="M220,28.9v3.55h.17a1.38,1.38,0,0,0,1.21-.52,3.22,3.22,0,0,0,.47-1.54h.25V35h-.25a3.43,3.43,0,0,0-.32-1.22,1.41,1.41,0,0,0-.58-.64,2.15,2.15,0,0,0-1-.17v2.46a3.61,3.61,0,0,0,.06.88.54.54,0,0,0,.23.27,1.17,1.17,0,0,0,.54.1h.52a3.11,3.11,0,0,0,2-.57,3.2,3.2,0,0,0,1.06-1.72h.24l-.4,2.77h-7.53v-.24H217a1.23,1.23,0,0,0,.61-.13.61.61,0,0,0,.25-.31,2.54,2.54,0,0,0,.07-.81V29.89a4.82,4.82,0,0,0,0-.72.59.59,0,0,0-.24-.35,1.08,1.08,0,0,0-.66-.18h-.29V28.4H224V31h-.24a3.21,3.21,0,0,0-.52-1.36,2,2,0,0,0-1-.6,5,5,0,0,0-1.35-.12Z" transform="translate(0.02)"/></g><g style="isolation:isolate"><path d="M224.89,37.12v-.24h.29a1.18,1.18,0,0,0,.59-.12.69.69,0,0,0,.29-.32,3,3,0,0,0,.06-.81V29.89a2.74,2.74,0,0,0-.07-.83.66.66,0,0,0-.28-.3,1.23,1.23,0,0,0-.59-.12h-.29V28.4h3.91a6.27,6.27,0,0,1,2.51.42,3.75,3.75,0,0,1,1.77,1.58,4.74,4.74,0,0,1,.6,2.39,4.66,4.66,0,0,1-.3,1.69,3.81,3.81,0,0,1-.76,1.28,3.73,3.73,0,0,1-1.09.81A5.89,5.89,0,0,1,230,37a7.08,7.08,0,0,1-1.23.08Zm3.33-8.22v6.8a2.59,2.59,0,0,0,.05.66.39.39,0,0,0,.17.19,1.16,1.16,0,0,0,.51.09,1.92,1.92,0,0,0,1.63-.73,4.93,4.93,0,0,0,.78-3.07,5.77,5.77,0,0,0-.53-2.68,2.26,2.26,0,0,0-1.07-1.07A4.16,4.16,0,0,0,228.22,28.9Z" transform="translate(0.02)"/></g><g style="isolation:isolate"><path d="M237.51,32.93v2.7a2.62,2.62,0,0,0,.08.83.61.61,0,0,0,.28.3,1.23,1.23,0,0,0,.59.12h.29v.24h-4.56v-.24h.29a1.23,1.23,0,0,0,.61-.13.61.61,0,0,0,.25-.31,2.42,2.42,0,0,0,.08-.81V29.89a2.62,2.62,0,0,0-.08-.83.61.61,0,0,0-.28-.3,1.22,1.22,0,0,0-.58-.12h-.29V28.4h4.56v.24h-.29a1.18,1.18,0,0,0-.61.13.64.64,0,0,0-.27.31,2.58,2.58,0,0,0-.07.81v2.47h3.08V29.89a2.74,2.74,0,0,0-.07-.83.64.64,0,0,0-.29-.3,1.19,1.19,0,0,0-.58-.12h-.29V28.4h4.56v.24h-.29a1.2,1.2,0,0,0-.61.13.62.62,0,0,0-.26.31,2.58,2.58,0,0,0-.07.81v5.74a2.74,2.74,0,0,0,.07.83.64.64,0,0,0,.29.3,1.19,1.19,0,0,0,.58.12h.29v.24h-4.56v-.24h.29a1.2,1.2,0,0,0,.61-.13.62.62,0,0,0,.26-.31,2.54,2.54,0,0,0,.07-.81v-2.7Z" transform="translate(0.02)"/><path d="M245.76,28.64V28.4h4.64v.24h-.28a1.22,1.22,0,0,0-.62.13.68.68,0,0,0-.26.31,2.58,2.58,0,0,0-.07.81v4.27a4.82,4.82,0,0,1-.25,1.83,2.18,2.18,0,0,1-.89.95,3,3,0,0,1-1.54.38,2.63,2.63,0,0,1-1.78-.58,1.68,1.68,0,0,1-.68-1.28,1,1,0,0,1,.28-.73.89.89,0,0,1,.67-.28,1,1,0,0,1,.66.25.83.83,0,0,1,.27.62.75.75,0,0,1,0,.31,1.41,1.41,0,0,1-.2.33.78.78,0,0,0-.17.37.35.35,0,0,0,.16.29,1.08,1.08,0,0,0,.64.18.76.76,0,0,0,.46-.14.79.79,0,0,0,.25-.44,10.53,10.53,0,0,0,.07-1.67V29.89a2.74,2.74,0,0,0-.07-.83.69.69,0,0,0-.29-.3,1.19,1.19,0,0,0-.58-.12Z" transform="translate(0.02)"/><path d="M253.8,28.9v3.55H254a1.38,1.38,0,0,0,1.21-.52,3.22,3.22,0,0,0,.47-1.54h.25V35h-.25a3.43,3.43,0,0,0-.32-1.22,1.41,1.41,0,0,0-.58-.64,2.15,2.15,0,0,0-.95-.17v2.46a3.61,3.61,0,0,0,.06.88.54.54,0,0,0,.23.27,1.17,1.17,0,0,0,.54.1h.52a3.11,3.11,0,0,0,2-.57,3.2,3.2,0,0,0,1.06-1.72h.24l-.4,2.77h-7.53v-.24h.29a1.23,1.23,0,0,0,.61-.13.61.61,0,0,0,.25-.31,2.54,2.54,0,0,0,.07-.81V29.89a4.82,4.82,0,0,0,0-.72.59.59,0,0,0-.24-.35,1.08,1.08,0,0,0-.66-.18h-.29V28.4h7.29V31h-.24a3.21,3.21,0,0,0-.52-1.36,2,2,0,0,0-1-.6,5,5,0,0,0-1.35-.12Z" transform="translate(0.02)"/></g><g style="isolation:isolate"><path d="M268,28.4v.24a1.4,1.4,0,0,0-.85.51,7.59,7.59,0,0,0-.81,1.51l-3,6.66h-.21l-3-6.93a7.6,7.6,0,0,0-.73-1.47,1,1,0,0,0-.69-.28V28.4h4.18v.24h-.14a1.51,1.51,0,0,0-.77.14.31.31,0,0,0-.15.28,1.11,1.11,0,0,0,.05.28c0,.1.15.38.35.84l1.86,4.34,1.72-3.86a10,10,0,0,0,.38-.94,1.4,1.4,0,0,0,.07-.41.57.57,0,0,0-.1-.34.62.62,0,0,0-.3-.22,1.92,1.92,0,0,0-.74-.11V28.4Z" transform="translate(0.02)"/></g><g style="isolation:isolate"><path d="M271.35,28.9v3.55h.17a1.35,1.35,0,0,0,1.2-.52,3.22,3.22,0,0,0,.48-1.54h.24V35h-.24a3.43,3.43,0,0,0-.32-1.22,1.41,1.41,0,0,0-.58-.64,2.18,2.18,0,0,0-.95-.17v2.46a3.61,3.61,0,0,0,.06.88.54.54,0,0,0,.23.27,1.17,1.17,0,0,0,.54.1h.52a2.81,2.81,0,0,0,3-2.29H276l-.39,2.77H268v-.24h.29a1.18,1.18,0,0,0,.61-.13.58.58,0,0,0,.26-.31,2.54,2.54,0,0,0,.07-.81V29.89a4.82,4.82,0,0,0,0-.72.59.59,0,0,0-.24-.35,1.09,1.09,0,0,0-.67-.18H268V28.4h7.3V31h-.24a3.2,3.2,0,0,0-.53-1.36,2,2,0,0,0-.95-.6,5,5,0,0,0-1.35-.12Z" transform="translate(0.02)"/></g></g><path d="M15.25,46.66a42.67,42.67,0,0,0,7.58-3.26,24.88,24.88,0,0,0,2.89-1.74c2.28-1.81,4.11-3.79,4.6-6.75a26.16,26.16,0,0,0,.18-4.15V0H0V30.74a26.16,26.16,0,0,0,.18,4.15c.49,3,2.32,4.94,4.6,6.75a27.68,27.68,0,0,0,2.89,1.78,43.66,43.66,0,0,0,7.58,3.24" transform="translate(0.02)" fill="#fcd600"/><path d="M30.08,30.66V.42H.42V30.66c0,3.9-.2,6.78,4.71,10.66a37.61,37.61,0,0,0,10.12,4.85,37.31,37.31,0,0,0,10.12-4.85c4.91-3.88,4.71-6.76,4.71-10.66" transform="translate(0.02)" fill="#ec2024"/><path d="M19.93,13.38c.37,0,.61.11.61.27s-.24.3-.61.3-.61-.13-.61-.29.23-.28.61-.28m-9.36,0c.38,0,.61.13.61.28S11,14,10.57,14s-.57-.14-.57-.29.24-.27.61-.27m-.06-.83c-.47,0-1.23.15-1.22.5-1.28-.22-1.42.31-1.34.79a.64.64,0,0,1,.39-.31.76.76,0,0,1,.53.14,2.32,2.32,0,0,1,.48.4,2.57,2.57,0,0,1-1.17,0,1.62,1.62,0,0,1-.56-.23,3,3,0,0,1-.43-.44c-.27-.27-.56-.2-.47.24a1.29,1.29,0,0,0,1,.65,5.16,5.16,0,0,0,.88.11,5.57,5.57,0,0,1,1,0,1.48,1.48,0,0,1-.64.25c-.3.06-.75-.18-1-.24,0,.23.33.45.91.56a9.8,9.8,0,0,1,2.25.64,4,4,0,0,1,1.08.92,2.16,2.16,0,0,1,.52,1.06c.1.88-.21,1.38-.78,1.53a1.21,1.21,0,0,1-1-.28,1.54,1.54,0,0,1-.33-1.19c.06-.24.32-.83.09-1a25,25,0,0,0-3.19-1.49c-.25-.09-.45.24-.53.38A5,5,0,0,1,3.46,13.2c-.42-.75-1.13,0-1,.72A2.91,2.91,0,0,0,4,15.74a5.43,5.43,0,0,0,2.63.8c.51.1.5.75-.11.88a3.84,3.84,0,0,1-3-.89c-.68-.63-1.07.12-.87.54.34,1.3,2.19,1.66,4.06,1.24.73-.12.29.66.09.66a2.61,2.61,0,0,1-3.42,0c-.57-.43-1-.07-.74.55.55,1.63,2.65,1.29,4.08.49.37-.21.71.27.26.64-1.79,1.25-2.68,1.26-3.49.78-1-.4-1.1.72-.5,1.09s2.36.1,3.61-.68c.53-.4.56.23.22.47-1.48,1.28-2.06,1.61-3.6,1.41C2.4,23.66,2.42,24.6,3,25c.82.5,2.42-.34,3.66-1.37.53-.28.61.18.35.73a5.35,5.35,0,0,1-2.16,1.78,2.68,2.68,0,0,1-1.81.06c-.57-.2-.64.4-.33.94.19.32,1,.42,1.83.12A5.59,5.59,0,0,0,7,25.4c.54-.48.47.16.23.61-1.26,2-2.41,2.72-3.92,2.6-.67-.12-.82.4-.39.88a1.9,1.9,0,0,0,2.51,0c.72-.7,2.12-2.21,2.85-3,.52-.42.68,0,.53.82a2.06,2.06,0,0,1-1.44,1.35c-.64.37-.16.87.32.88a2.11,2.11,0,0,0,1.21-.76,4.44,4.44,0,0,0,.87-2c.28-.46.79-.24.79.24a2.12,2.12,0,0,1-.94,1.51c-.47.43.33.58.59.4a3.69,3.69,0,0,0,1.31-1.8c.19-.45.73-.23.48.49a3.81,3.81,0,0,1-3.3,2.75.23.23,0,0,0-.22.33l.69.7c-1.06.31-1.92.48-3,.79l-1.46-1c-.14-.32-.2-.81-1-.47a.83.83,0,0,0-1,.09.92.92,0,0,1,.76.32c.21.56.71.62,1.21.46.33.27.51.48.83.76H3.81c-.58-.63-1.05-.59-1.47-.1a.71.71,0,0,0-.67.44c.35-.14.56-.18.71,0,.62.36,1,.28,1.33,0l1.74.11c-.22.19-.52.29-.74.48-.9-.26-1.37.09-1.53.82a1.62,1.62,0,0,0-.12.92,1.09,1.09,0,0,1,.48-.7c.8.21,1.1-.12,1.15-.6.38-.32,1-.39,1.35-.71.45.15.67.24,1.13.38a.84.84,0,0,0,1,.6l.11,0c.7,0,.58.31.63.54a.63.63,0,0,0-.06-.89.72.72,0,0,0-.19-.11A.62.62,0,0,0,8,33a.6.6,0,0,0-.28.13c-.43-.13-.54-.3-1-.43,1.09-.34,1.86-.42,3-.77.27.26.49.44.76.67s.29.11.37,0a21.46,21.46,0,0,1,1.62-2.51,2.31,2.31,0,0,1,.89-.72.53.53,0,0,1,.51.13,1,1,0,0,1,.2.81,2.87,2.87,0,0,1-.37,1.1,3.77,3.77,0,0,1-.56.81,4.48,4.48,0,0,1-1.25,1c-.63.41-.89.23-1.38.2s-.8.38-.28.81a1.88,1.88,0,0,0,1.27.21c.3,0,.65-.44.91-.65s.75.06.43.44a2.52,2.52,0,0,1-1.89,1.14c-.75.1-.61.53-.11.73a2,2,0,0,0,2.13-.78c.32-.35.55-.36.49.18-.31,1-.75,1.36-1.46,1.41s-.58.39-.16.69c1,.66,1.65-.47,2-1.15s.58-.32.62.18a2.43,2.43,0,0,1-1.12,1.92c.62,1,1.35,2,2,3,.63-1,1.36-2,2-3a2.41,2.41,0,0,1-1.17-1.88c0-.5.39-.8.62-.18s1,1.81,2,1.15c.42-.3.41-.75-.16-.69s-1.14-.43-1.46-1.41c-.06-.54.17-.53.49-.18a2,2,0,0,0,2.13.78c.51-.2.65-.63-.11-.73a2.52,2.52,0,0,1-1.89-1.14c-.32-.38.15-.77.44-.44a1.81,1.81,0,0,0,.91.65,1.94,1.94,0,0,0,1.27-.21c.51-.43.34-.74-.29-.81s-.75.21-1.38-.2a4.48,4.48,0,0,1-1.25-1,4,4,0,0,1-.56-.81,2.7,2.7,0,0,1-.36-1.1,1,1,0,0,1,.19-.81.53.53,0,0,1,.51-.13,2.24,2.24,0,0,1,.89.72,21.46,21.46,0,0,1,1.62,2.51c.09.11.23.09.37,0a8,8,0,0,0,.76-.67c1.09.35,1.87.43,3,.77-.43.13-.55.3-1,.43a.62.62,0,0,0-.87.09.6.6,0,0,0-.13.28.64.64,0,0,0-.35.84,1.4,1.4,0,0,0,.1.16c.06-.23-.07-.52.64-.54a.84.84,0,0,0,1.09-.47l0-.09c.45-.14.67-.23,1.12-.38.39.32,1,.39,1.36.71,0,.48.34.81,1.14.6a1.14,1.14,0,0,1,.49.7,1.71,1.71,0,0,0-.13-.92c-.16-.73-.63-1.08-1.53-.82-.22-.19-.52-.29-.74-.48l1.72-.18c.31.28.71.36,1.33,0,.15-.15.37-.11.71,0a.71.71,0,0,0-.67-.44c-.42-.49-.88-.53-1.47.1H25.05c.33-.28.5-.49.83-.76.51.16,1,.1,1.21-.46a1,1,0,0,1,.77-.32.83.83,0,0,0-1-.09c-.77-.34-.84.15-1,.47l-1.46,1c-1.06-.31-1.93-.48-3-.79l.69-.7c.06-.2,0-.3-.22-.33a3.78,3.78,0,0,1-3.31-2.68c-.25-.72.28-.93.47-.49A3.69,3.69,0,0,0,20.34,29c.27.18,1.06,0,.59-.4A2.08,2.08,0,0,1,20,27.06c0-.48.5-.7.78-.24a4.44,4.44,0,0,0,.87,2,2.11,2.11,0,0,0,1.21.76c.48,0,1-.51.32-.88a2.07,2.07,0,0,1-1.42-1.35c-.15-.83,0-1.24.53-.82.73.81,2.13,2.32,2.86,3a1.9,1.9,0,0,0,2.51,0c.42-.48.27-1-.4-.88-1.51.12-2.66-.61-3.91-2.6-.25-.45-.32-1.09.23-.61A5.46,5.46,0,0,0,26,27.23c.84.3,1.63.2,1.82-.12.32-.54.25-1.14-.32-.94a2.71,2.71,0,0,1-1.82-.06,5.35,5.35,0,0,1-2.16-1.78c-.26-.55-.17-1,.35-.73,1.24,1,2.85,1.87,3.67,1.37.6-.37.61-1.31-.15-1.25-1.54.2-2.13-.13-3.61-1.41-.33-.24-.31-.87.22-.47,1.25.78,3,1.09,3.61.68s.52-1.49-.49-1.09c-.81.48-1.71.47-3.5-.78-.45-.37-.11-.85.26-.64,1.44.8,3.53,1.14,4.08-.49.21-.62-.17-1-.73-.55a2.61,2.61,0,0,1-3.42,0c-.21,0-.64-.78.08-.66,1.88.42,3.73.06,4.06-1.24.2-.42-.18-1.17-.87-.54a3.85,3.85,0,0,1-3,.89c-.61-.13-.62-.79-.11-.88a5.43,5.43,0,0,0,2.63-.8A2.91,2.91,0,0,0,28.13,14c.12-.71-.58-1.47-1-.72a5,5,0,0,1-3.56,2.35c-.07-.14-.28-.47-.53-.38a26.58,26.58,0,0,0-3.28,1.45c-.23.13,0,.72.09,1a1.5,1.5,0,0,1-.32,1.17,1.15,1.15,0,0,1-1,.29c-.57-.15-.88-.65-.78-1.53a2,2,0,0,1,.51-1.06,3.93,3.93,0,0,1,1.12-.87A9.8,9.8,0,0,1,21.63,15c.57-.11.87-.33.9-.56-.27.06-.73.3-1,.24a1.38,1.38,0,0,1-.57-.28,5.57,5.57,0,0,1,1,0,5.16,5.16,0,0,0,.88-.11,1.29,1.29,0,0,0,1-.65c.09-.44-.2-.51-.47-.24a4.37,4.37,0,0,1-.42.44,1.67,1.67,0,0,1-.57.23,2.53,2.53,0,0,1-1.16,0,2.22,2.22,0,0,1,.47-.4.8.8,0,0,1,.54-.14.65.65,0,0,1,.38.31c.08-.48,0-1-1.34-.79,0-.35-.75-.51-1.21-.5a3.53,3.53,0,0,0-1.19.34,9,9,0,0,1-1.93.37,9.55,9.55,0,0,0,.91.66,3,3,0,0,0-1.33,1,3.1,3.1,0,0,1,.91.06,3,3,0,0,0-1.51.75l.44.1c.1,0,.06.08,0,.15l-1,1.08c-.2-.18-.87-1-1-1.08s-.1-.12,0-.15l.45-.1A3,3,0,0,0,13.29,15a2.84,2.84,0,0,1,.92-.06,3,3,0,0,0-1.33-1c.41-.3.49-.32.9-.66a9,9,0,0,1-1.93-.37,3.48,3.48,0,0,0-1.18-.34Z" transform="translate(0.02)"/><path d="M16.34,8.5a.18.18,0,0,0,0,.36h0a.18.18,0,0,0,0-.36M13.42,8c0-.19.12-.28.29-.19.18-.07.28,0,.27.17a.19.19,0,0,1,0,.27.17.17,0,0,1-.1.06.22.22,0,0,1-.3.07l-.07-.07c-.25-.09-.17-.21-.11-.32m-.21.31h.42V8.06h0v-.2h0l.37-.2h-.55v.25Zm.48,0a.18.18,0,1,0-.18-.18.18.18,0,0,0,.18.18h0m3.8-3.74L17,5a5.63,5.63,0,0,1,1.81-.88c.17,0,.19.14.19.26l-.18.18-1.69.77.47-.11c.06,0,.11,0,.16.13l-.13.25a1.29,1.29,0,0,0-.28,1c.07.14.13.29.19.43a.92.92,0,0,1,.24.61.13.13,0,0,1-.18,0l0,0a2.88,2.88,0,0,0-3-1.25h-.07c.4-.33,1.17-.33,1.53-.47a3.31,3.31,0,0,0-1.75.36H14c-.08,0-.1.06,0,.14s.22,0,.19.06-.2.1-.3.15-.13-.12-.09-.2l.33-.37,1.25-.71c.05-.09.15-.11.28-.06a1.51,1.51,0,0,0,1,.17c-.12-.11-.22-.22-.17-.34h-.22a.41.41,0,0,1-.4,0s-.08-.07,0-.11a.62.62,0,0,1,.51-.08,1,1,0,0,1,.91-.69l.22-.18c.08-.22.24-.19.38-.23a.66.66,0,0,1,.44-.25,6.19,6.19,0,0,1,2.42-.91,8.64,8.64,0,0,0-3.21,1.89m.28,3.52h0c.05-.12-.13-.28-.34-.45C15.32,6.4,14,6.52,13.58,6.84a1.87,1.87,0,0,0-.26.3s0,.09,0,.12l4.35.89a.14.14,0,0,0,.05-.08m0,.41-.09.34a.19.19,0,0,0-.12-.07h0l.09-.32a.09.09,0,0,1,.1-.09h0a.2.2,0,0,1,.05.13M18,8.7h0c.14.07-.06-.23-.2-.13l-.27.75c.1.1.19.17.29.06-.09-.07,0-.75.18-.68M17.75,10a1.34,1.34,0,0,1,0,.4H12.48a2.24,2.24,0,0,0-.07-.51,8.91,8.91,0,0,1,1.26.19,16.12,16.12,0,0,0,2.78.07h0A9.55,9.55,0,0,0,17.76,10M12.63,8.89h0c-.09,0,0,.38,0,.54a1,1,0,0,0,.79.46,15.85,15.85,0,0,0,3.77,0c.1,0,.14-.06.11-.15a25.58,25.58,0,0,1-4.67-.85m.22-.19a.4.4,0,0,0-.16-.13.75.75,0,0,0,.07-.12.26.26,0,0,1,.15.16c.07.11,0,.11-.06.09m0-1c.09-.07.11,0,.11.09a2.71,2.71,0,0,1-.09.41c0,.12-.06.14-.16.06a.84.84,0,0,1,.14-.56M14.17,9s-.2,0-.32,0-.07-.09,0-.11a1.7,1.7,0,0,1,.32,0c.1,0,0,.23,0,.18m.93-1.18-.31,1.12a.09.09,0,0,1-.11.09h0a.09.09,0,0,1,0-.12L15,7.9a.1.1,0,0,1,.11-.09h0a.08.08,0,0,1,0,.12m.24,0L15,9.07a.09.09,0,0,1-.1.09h0A.1.1,0,0,1,14.85,9l.31-1.12a.09.09,0,0,1,.11-.09h0a.08.08,0,0,1,0,.12m.24,0L15.2,9.06a.09.09,0,0,1-.1.09h0a.2.2,0,0,1,0-.13l.31-1.12a.12.12,0,0,1,.11-.09h0a.1.1,0,0,1,0,.13m-.11,1,.05.12h0v.1a.09.09,0,0,1-.1.09h0a.08.08,0,0,1,0-.12l.13-.48v.16Zm.2.28h0a.1.1,0,0,1-.11.09h0a.08.08,0,0,1,0-.12V9.05h0ZM17.06,9l-.14.49a.13.13,0,0,1-.1.1h0a.1.1,0,0,1,0-.13v-.1h.12L17,9.25l0-.08Zm.18-.62-.14.49V8.41h0V8.33a.09.09,0,0,1,.1-.09h0a.1.1,0,0,1,0,.13m.24,1.11-.05.15a.1.1,0,0,1-.1.08h0a.09.09,0,0,1,0-.1l.09-.26a.17.17,0,0,0,.13.14m-.33.06.31-1.12V8.3h0a.1.1,0,0,0-.1.09l-.31,1.12v.13h0s.09,0,.1-.08m-.27-1v.06l.09,0v.48H16L16,9.08V8.62h0v-.3L16,8.26H17l.07.07v.29h0Zm-2.38-.41.07-.25a.1.1,0,0,1,.11-.09h0a.1.1,0,0,1,0,.13l-.31,1.12a.09.09,0,0,1-.11.09h0a.08.08,0,0,1,0-.12l.11-.39.05-.08v-.4ZM13,8.16h0v.25l.05.08v.07h1V8h0V7.75l.21-.09-.06-.07-.08,0h-.84l-.06.06v.27h0V8ZM21.88,2.5h-.07l-1.22.32a5.76,5.76,0,0,0-1.27.49.11.11,0,0,0,0,.08c1-.19,1.53-.16,1.87.1h-.7a5.77,5.77,0,0,0-.58.08,3.2,3.2,0,0,0-1,.34h.16c.11,0,.14.16.06.3a.91.91,0,0,1-.13.26L17.94,5a1.16,1.16,0,0,1-.19.7,1,1,0,0,0-.28.72,2.51,2.51,0,0,0,.46.85c.07.18,0,.33-.2.44l.2.37c.15.07.21.15.12.38a.49.49,0,0,1,0,.24l.14.11c0,.11,0,.19-.11.25a.39.39,0,0,0-.2.31c-.09,0-.12.06-.15.13s0,.15-.11.14v.12l.28.09v.58H12.35c0-.21,0-.43-.06-.64a.57.57,0,0,1,.13-.08.69.69,0,0,0-.05-.13V9.39a2,2,0,0,0,.08-.8c-.17-.08-.16-.26-.06-.41a.44.44,0,0,1,.12-.6l.08,0c0-.15,0-.27.16-.32s.08-.15.41-.23l.37-.39c0-.09,0-.18,0-.27A1.3,1.3,0,0,1,14,5.67a8.16,8.16,0,0,0,1.29-.8l.35-.42A.62.62,0,0,1,16,4.16l.61-.1.6-.3c.05-.16.19-.22.43-.2A6.68,6.68,0,0,1,21.84,2.4M16.51,8.8c-.13.15-.28.14-.37,0-.25-.09-.18-.21-.12-.32a.19.19,0,0,1,.16-.22.21.21,0,0,1,.13,0c.19-.07.28,0,.28.18a.19.19,0,0,1,0,.27l-.09,0m.27-.29v.23H16.4V8.68h0v0h0V8.6h0V8.5h.65v.15h0Z" transform="translate(0.02)" fill="#fcd600"/><g style="isolation:isolate"><path d="M303.88,28.48h5.06l.1.15L304,36h4.85v.24h-5.11l-.11-.13,5-7.41h-4.79Z" transform="translate(0.02)" stroke="#000" stroke-miterlimit="10" stroke-width="0.5"/><path d="M310.15,30.55c0-1.43,1.36-2.18,2.73-2.18a2.82,2.82,0,0,1,2.41,1.14l-.26.16a2.4,2.4,0,0,0-2.18-1c-1.22,0-2.43.63-2.43,1.9v3.62c0,1.3,1.22,1.95,2.46,1.95s2.46-.65,2.46-1.95V32.7H313v-.27h2.67v1.74c0,1.48-1.38,2.21-2.74,2.21s-2.73-.73-2.73-2.21Z" transform="translate(0.02)" stroke="#000" stroke-miterlimit="10" stroke-width="0.5"/><path d="M318.77,28.48h2.87v5.74A2.35,2.35,0,0,1,319,36.38a2.46,2.46,0,0,1-2.46-1.57l.27-.09a2.23,2.23,0,0,0,2.2,1.4c1.15,0,2.34-.62,2.34-1.9V28.74h-2.6Z" transform="translate(0.02)" stroke="#000" stroke-miterlimit="10" stroke-width="0.5"/><path d="M323.9,32.25h4v.29h-4V36h4.36v.27h-4.63V28.48h4.63v.28H323.9Z" transform="translate(0.02)" stroke="#000" stroke-miterlimit="10" stroke-width="0.5"/><path d="M332.47,28.48c1.36,0,2.51.62,2.51,2.09v3.62c0,1.47-1.15,2.08-2.51,2.08h-2.63V28.48Zm0,7.52c1.23,0,2.23-.52,2.23-1.81V30.57c0-1.29-1-1.81-2.23-1.81h-2.35V36Z" transform="translate(0.02)" stroke="#000" stroke-miterlimit="10" stroke-width="0.5"/><path d="M337.16,36.27h-.27V28.48h.27v3.77h4.92V28.48h.28v7.79h-.28V32.52h-4.92Z" transform="translate(0.02)" stroke="#000" stroke-miterlimit="10" stroke-width="0.5"/><path d="M345.89,28.48h2.87v5.74a2.35,2.35,0,0,1-2.62,2.16,2.47,2.47,0,0,1-2.47-1.57l.28-.09a2.23,2.23,0,0,0,2.2,1.4,2.08,2.08,0,0,0,2.33-1.9V28.74h-2.59Z" transform="translate(0.02)" stroke="#000" stroke-miterlimit="10" stroke-width="0.5"/><path d="M351,32.25h4v.29h-4V36h4.36v.27h-4.63V28.48h4.63v.28H351Z" transform="translate(0.02)" stroke="#000" stroke-miterlimit="10" stroke-width="0.5"/><path d="M361.64,28.76h-2.59v7.51h-.28V28.76h-2.59v-.28h5.46Z" transform="translate(0.02)" stroke="#000" stroke-miterlimit="10" stroke-width="0.5"/><path d="M365.35,36.27V28.48h2.75a2.34,2.34,0,0,1,2.39,2.37,2.28,2.28,0,0,1-2.38,2.32h-2.49v3.1Zm2.75-3.37a2,2,0,0,0,2.11-2.06,2,2,0,0,0-2.11-2.1h-2.48V32.9Z" transform="translate(0.02)" stroke="#000" stroke-miterlimit="10" stroke-width="0.5"/><path d="M372.24,32.25h4v.29h-4V36h4.36v.27H372V28.48h4.63v.28h-4.36Zm1.06-5.14a.27.27,0,0,1,0,.53.27.27,0,1,1,0-.53Zm2,0a.27.27,0,0,1,0,.53.27.27,0,1,1,0-.53Z" transform="translate(0.02)" stroke="#000" stroke-miterlimit="10" stroke-width="0.5"/><path d="M382.83,36.27l-2.61-3.47h-1.78v3.47h-.26V28.48h2.75c1.35,0,2.39.53,2.42,2.12s-1,2.2-2.41,2.2h-.42l2.63,3.47Zm-1.89-3.72c1.42,0,2.15-.57,2.15-1.94s-.91-1.89-2.15-1.87h-2.5v3.81Z" transform="translate(0.02)" stroke="#000" stroke-miterlimit="10" stroke-width="0.5"/><path d="M387.88,33.21l4.61-4.73h.35l-3.6,3.76,3.6,4h-.32L389,32.43l-1.16,1.17v2.67h-.28V28.48h.28Z" transform="translate(0.02)" stroke="#000" stroke-miterlimit="10" stroke-width="0.5"/><path d="M394.32,34.14c0,1.32,1.22,2,2.46,2s2.46-.66,2.46-2V28.48h.28v5.66c0,1.48-1.38,2.24-2.74,2.24s-2.73-.76-2.73-2.24V28.48h.27Z" transform="translate(0.02)" stroke="#000" stroke-miterlimit="10" stroke-width="0.5"/><path d="M406.88,28.47,404,36.27h-.44l-2.92-7.79H401l2.8,7.47h.06l2.74-7.48Z" transform="translate(0.02)" stroke="#000" stroke-miterlimit="10" stroke-width="0.5"/><path d="M408.4,32.25h4v.29h-4V36h4.35v.27h-4.63V28.48h4.63v.28H408.4Z" transform="translate(0.02)" stroke="#000" stroke-miterlimit="10" stroke-width="0.5"/><path d="M419.4,36V28.48h.27v7.79h-.47l-4.57-7.43v7.43h-.28V28.48h.42Z" transform="translate(0.02)" stroke="#000" stroke-miterlimit="10" stroke-width="0.5"/><path d="M424.34,28.48c1.37,0,2.51.62,2.51,2.09v3.62c0,1.47-1.14,2.08-2.51,2.08h-2.63V28.48Zm0,7.52c1.24,0,2.24-.52,2.24-1.81V30.57c0-1.29-1-1.81-2.24-1.81H422V36Z" transform="translate(0.02)" stroke="#000" stroke-miterlimit="10" stroke-width="0.5"/><path d="M429,36.27h-.28V28.48H429Z" transform="translate(0.02)" stroke="#000" stroke-miterlimit="10" stroke-width="0.5"/><path d="M436.14,36V28.48h.28v7.79H436l-4.57-7.43v7.43h-.29V28.48h.43Z" transform="translate(0.02)" stroke="#000" stroke-miterlimit="10" stroke-width="0.5"/><path d="M441.44,32.25h4v.29h-4V36h4.36v.27h-4.63V28.48h4.63v.28h-4.36Z" transform="translate(0.02)" stroke="#000" stroke-miterlimit="10" stroke-width="0.5"/><path d="M452.29,32.16c1.28.25,2.67.77,2.56,2.3a2.38,2.38,0,0,1-2.62,1.92,3,3,0,0,1-2.56-1.25l.25-.11a2.81,2.81,0,0,0,2.33,1.1,2.1,2.1,0,0,0,2.3-1.66c.1-1.39-1.11-1.77-2.32-2s-2.56-.68-2.5-2.15c0-1.29,1.27-1.9,2.51-1.9a2.66,2.66,0,0,1,2.42,1.2l-.25.1a2.47,2.47,0,0,0-2.17-1c-1.1,0-2.16.46-2.23,1.63S451,31.91,452.29,32.16Z" transform="translate(0.02)" stroke="#000" stroke-miterlimit="10" stroke-width="0.5"/><path d="M456.71,36.27h-.27V28.48h.27v3.77h4.92V28.48h.28v7.79h-.28V32.52h-4.92Z" transform="translate(0.02)" stroke="#000" stroke-miterlimit="10" stroke-width="0.5"/><path d="M468.75,35.79a3.73,3.73,0,0,1-2.07.59c-1.45,0-2.89-.74-2.89-2.21v-3.6c0-1.46,1.44-2.2,2.89-2.2s2.89.74,2.89,2.2v3.6a1.82,1.82,0,0,1-.62,1.45l.58.7-.21.14Zm0-.39a1.51,1.51,0,0,0,.53-1.23v-3.6c0-1.29-1.31-1.93-2.62-1.93s-2.62.59-2.62,1.93v3.6c0,1.27,1.3,1.95,2.62,1.95a3.61,3.61,0,0,0,1.91-.55l-.68-.86.21-.15Z" transform="translate(0.02)" stroke="#000" stroke-miterlimit="10" stroke-width="0.5"/><path d="M471.72,36.27h-.27V28.48h.27Z" transform="translate(0.02)" stroke="#000" stroke-miterlimit="10" stroke-width="0.5"/><path d="M473.77,36.27V28.48h2.75a2.34,2.34,0,0,1,2.39,2.37,2.28,2.28,0,0,1-2.38,2.32H474v3.1Zm2.75-3.37a2,2,0,0,0,2.11-2.06,2,2,0,0,0-2.11-2.1H474V32.9Z" transform="translate(0.02)" stroke="#000" stroke-miterlimit="10" stroke-width="0.5"/><path d="M480.66,32.25h4v.29h-4V36H485v.27h-4.63V28.48H485v.28h-4.36Zm1.06-5.14a.27.27,0,1,1-.26.26A.26.26,0,0,1,481.72,27.11Zm2,0a.27.27,0,1,1-.26.26A.26.26,0,0,1,483.7,27.11Z" transform="translate(0.02)" stroke="#000" stroke-miterlimit="10" stroke-width="0.5"/><path d="M491.26,36.27l-2.62-3.47h-1.77v3.47h-.27V28.48h2.75c1.36,0,2.39.53,2.42,2.12s-1,2.2-2.41,2.2H489l2.63,3.47Zm-1.9-3.72c1.42,0,2.15-.57,2.15-1.94s-.9-1.89-2.15-1.87h-2.49v3.81Z" transform="translate(0.02)" stroke="#000" stroke-miterlimit="10" stroke-width="0.5"/><path d="M493.6,36.27h-.28V28.48h.28Z" transform="translate(0.02)" stroke="#000" stroke-miterlimit="10" stroke-width="0.5"/><path d="M497.85,32.16c1.28.25,2.66.77,2.56,2.3a2.38,2.38,0,0,1-2.62,1.92,3,3,0,0,1-2.57-1.25l.26-.11a2.81,2.81,0,0,0,2.33,1.1,2.11,2.11,0,0,0,2.3-1.66c.1-1.39-1.11-1.77-2.32-2s-2.57-.68-2.5-2.15c0-1.29,1.26-1.9,2.51-1.9a2.67,2.67,0,0,1,2.42,1.2l-.26.1a2.44,2.44,0,0,0-2.16-1c-1.1,0-2.16.46-2.24,1.63S496.6,31.91,497.85,32.16Z" transform="translate(0.02)" stroke="#000" stroke-miterlimit="10" stroke-width="0.5"/><path d="M502.27,32.25h4v.29h-4V36h4.36v.27H502V28.48h4.63v.28h-4.36Zm1.06-5.14a.27.27,0,0,1,0,.53.27.27,0,1,1,0-.53Zm2,0a.27.27,0,0,1,0,.53.27.27,0,1,1,0-.53Z" transform="translate(0.02)" stroke="#000" stroke-miterlimit="10" stroke-width="0.5"/><path d="M512.08,36.27h-.26V28.76l-1.53,1.62-.18-.16,1.6-1.74h.37Z" transform="translate(0.02)" stroke="#000" stroke-miterlimit="10" stroke-width="0.5"/><path d="M515.28,36.27H515V28.76l-1.53,1.62-.18-.16,1.6-1.74h.37Z" transform="translate(0.02)" stroke="#000" stroke-miterlimit="10" stroke-width="0.5"/><path d="M520.39,28.76h-.1v7.5H520V28.48h.58l2.79,6.31,2.77-6.31h.58v7.79h-.27V28.68h-.1L523.57,35h-.37Z" transform="translate(0.02)" stroke="#000" stroke-miterlimit="10" stroke-width="0.5"/><path d="M528.26,36.27H528l2.88-7.79h.44l2.88,7.79h-.29l-1-2.78h-3.54ZM531,28.75l-1.65,4.46h3.34l-1.65-4.46Z" transform="translate(0.02)" stroke="#000" stroke-miterlimit="10" stroke-width="0.5"/><path d="M536.87,28.48h2.87v5.74a2.35,2.35,0,0,1-2.62,2.16,2.45,2.45,0,0,1-2.46-1.57l.27-.09a2.23,2.23,0,0,0,2.2,1.4c1.15,0,2.33-.62,2.33-1.9V28.74h-2.59Z" transform="translate(0.02)" stroke="#000" stroke-miterlimit="10" stroke-width="0.5"/><path d="M544.3,29.78l-.24-.11a2.33,2.33,0,0,1,2.34-1.3,2.21,2.21,0,0,1,2.39,2.06,2.89,2.89,0,0,1-.94,1.87L544.31,36h4.49v.27H544l-.12-.25,3.75-3.93a2.61,2.61,0,0,0,.86-1.67,1.93,1.93,0,0,0-2.11-1.77A2.14,2.14,0,0,0,544.3,29.78Z" transform="translate(0.02)" stroke="#000" stroke-miterlimit="10" stroke-width="0.5"/><path d="M550.26,34.3V30.45c0-1.43,1.39-2.08,2.63-2.08s2.62.65,2.62,2.08V34.3c0,1.42-1.39,2.08-2.62,2.08S550.26,35.72,550.26,34.3Zm.27,0c0,1.34,1.28,1.81,2.36,1.81s2.34-.47,2.34-1.81V30.45c0-1.34-1.27-1.8-2.34-1.8s-2.36.46-2.36,1.8Z" transform="translate(0.02)" stroke="#000" stroke-miterlimit="10" stroke-width="0.5"/><path d="M557.21,29.78l-.24-.11a2.33,2.33,0,0,1,2.34-1.3,2.21,2.21,0,0,1,2.39,2.06,2.94,2.94,0,0,1-.94,1.87L557.22,36h4.49v.27h-4.79L556.8,36l3.75-3.93a2.61,2.61,0,0,0,.86-1.67,1.93,1.93,0,0,0-2.11-1.77A2.13,2.13,0,0,0,557.21,29.78Z" transform="translate(0.02)" stroke="#000" stroke-miterlimit="10" stroke-width="0.5"/><path d="M563.29,35.12a2.59,2.59,0,0,0,2.13,1c1.32,0,2.38-.6,2.38-2.59a2.1,2.1,0,0,0-2.3-2,4.26,4.26,0,0,0-2.14.51h-.13V28.48h4.45v.26h-4.17v2.93a4.87,4.87,0,0,1,2-.41,2.36,2.36,0,0,1,2.58,2.25c0,1.72-.73,2.88-2.67,2.88A2.74,2.74,0,0,1,563,35.25Z" transform="translate(0.02)" stroke="#000" stroke-miterlimit="10" stroke-width="0.5"/></g><path d="M370.26,6.67v7.25h7.64v.54h-7.64v7.21h-.55V6.12h9v.55Zm10.93,15V6.12h.55v15h7.77v.55Z" transform="translate(0.02)" stroke="#000" stroke-miterlimit="10" stroke-width="2"/><path d="M393.82,13.63h8v.59h-8v6.9h8.7v.55h-9.25V6.12h9.25v.55h-8.7Z" transform="translate(0.02)" stroke="#000" stroke-miterlimit="10" stroke-width="2"/><path d="M416.26,6.67h-5.18v15h-.55v-15h-5.18V6.12h10.91Z" transform="translate(0.02)" stroke="#000" stroke-miterlimit="10" stroke-width="2"/><path d="M420.57,13.63h8v.59h-8v6.9h8.69v.55H420V6.12h9.24v.55h-8.69Zm2.11-10.25a.53.53,0,1,1-.53.52A.53.53,0,0,1,422.68,3.38Zm3.95,0a.53.53,0,1,1-.53.52A.53.53,0,0,1,426.63,3.38Z" transform="translate(0.02)" stroke="#000" stroke-miterlimit="10" stroke-width="2"/><path d="M450.37,6.1l-5.71,15.57h-.88L437.94,6.12h.64L444.17,21h.11L449.75,6.1Z" transform="translate(0.02)" stroke="#000" stroke-miterlimit="10" stroke-width="2"/><path d="M453.46,10.29c0-2.92,2.88-4.39,5.78-4.39s5.8,1.47,5.8,4.39v7.18c0,2.92-2.9,4.42-5.8,4.42s-5.78-1.5-5.78-4.42Zm.55,7.18c0,2.59,2.59,3.87,5.23,3.87s5.25-1.28,5.25-3.87V10.29c0-2.72-2.66-3.86-5.27-3.86S454,7.61,454,10.29Z" transform="translate(0.02)" stroke="#000" stroke-miterlimit="10" stroke-width="2"/><path d="M478.72,6.67h-5.19v15H473v-15H467.8V6.12h10.92Z" transform="translate(0.02)" stroke="#000" stroke-miterlimit="10" stroke-width="2"/><path d="M483,21.67h-.55V6.12H483Z" transform="translate(0.02)" stroke="#000" stroke-miterlimit="10" stroke-width="2"/><path d="M489.08,6.67l-.2,0v15h-.55V6.12h1.17l5.55,12.58,5.54-12.58h1.16V21.67h-.55V6.52H501l-5.57,12.69h-.75Z" transform="translate(0.02)" stroke="#000" stroke-miterlimit="10" stroke-width="2"/><path d="M507.62,21.67h-.55V6.12h.55Z" transform="translate(0.02)" stroke="#000" stroke-miterlimit="10" stroke-width="2"/></svg>