<?xml version="1.0" encoding="utf-8"?>
<!-- Generator: Adobe Illustrator 22.1.0, SVG Export Plug-In . SVG Version: 6.00 Build 0)  -->
<svg version="1.1" id="Layer_1" xmlns="http://www.w3.org/2000/svg" xmlns:xlink="http://www.w3.org/1999/xlink" x="0px" y="0px"
	 viewBox="0 0 1000 204" style="enable-background:new 0 0 1000 204;" xml:space="preserve">
<style type="text/css">
	.st0{filter:url(#Adobe_OpacityMaskFilter);}
	.st1{fill:url(#SVGID_2_);}
	.st2{mask:url(#SVGID_1_);}
	.st3{fill:#7C7C7C;}
	.st4{fill:#0A0A0A;}
	.st5{fill:#1C1B1B;}
	.st6{fill:#161616;}
	.st7{fill:#474646;}
	.st8{fill:#230000;}
	.st9{fill:#FF0000;}
	.st10{fill:#870000;}
	.st11{fill:#890000;}
	.st12{fill:#E00000;}
	.st13{fill:#BF0000;}
	.st14{fill:#A50000;}
	.st15{fill:#160707;stroke:#160707;stroke-miterlimit:10;}
	.st16{stroke:url(#SVGID_3_);stroke-miterlimit:10;}
	.st17{fill:url(#SVGID_4_);stroke:url(#SVGID_5_);stroke-width:4;stroke-miterlimit:10;}
	.st18{stroke:url(#SVGID_6_);stroke-width:4;stroke-miterlimit:10;}
	.st19{stroke:url(#SVGID_7_);stroke-width:4;stroke-miterlimit:10;}
	.st20{fill:url(#SVGID_8_);stroke:url(#SVGID_9_);stroke-width:4;stroke-miterlimit:10;}
	.st21{fill:url(#SVGID_10_);stroke:url(#SVGID_11_);stroke-width:4;stroke-miterlimit:10;}
	.st22{fill:url(#SVGID_12_);stroke:url(#SVGID_13_);stroke-width:4;stroke-miterlimit:10;}
	.st23{stroke:url(#SVGID_14_);stroke-width:4;stroke-miterlimit:10;}
	.st24{fill:url(#SVGID_15_);stroke:url(#SVGID_16_);stroke-width:4;stroke-miterlimit:10;}
	.st25{fill:url(#SVGID_17_);stroke:url(#SVGID_18_);stroke-width:4;stroke-miterlimit:10;}
	.st26{stroke:url(#SVGID_19_);stroke-width:4;stroke-miterlimit:10;}
	.st27{stroke:url(#SVGID_20_);stroke-width:4;stroke-miterlimit:10;}
	.st28{fill:#250089;}
	.st29{font-family:'TimesNewRomanPSMT';}
	.st30{font-size:19.512px;}
	.st31{fill:none;stroke:#000000;stroke-miterlimit:10;}
	.st32{fill:#1D005B;}
	.st33{fill:none;stroke:#1D005B;stroke-miterlimit:10;}
	.st34{fill:#5700E0;}
	.st35{fill:none;stroke:#5700E0;stroke-miterlimit:10;}
</style>
<defs>
	<filter id="Adobe_OpacityMaskFilter" filterUnits="userSpaceOnUse" x="38.2" y="8" width="297.8" height="158">
		
			<feColorMatrix  type="matrix" values="-1 0 0 0 1  0 -1 0 0 1  0 0 -1 0 1  0 0 0 1 0" color-interpolation-filters="sRGB" result="source"/>
	</filter>
</defs>
<mask maskUnits="userSpaceOnUse" x="38.2" y="8" width="297.8" height="158" id="SVGID_1_">
	<g class="st0">
		<linearGradient id="SVGID_2_" gradientUnits="userSpaceOnUse" x1="41.3333" y1="84.5" x2="341.3333" y2="84.5">
			<stop  offset="0" style="stop-color:#FFFFFF"/>
			<stop  offset="0.1748" style="stop-color:#ABABAB"/>
			<stop  offset="0.342" style="stop-color:#626262"/>
			<stop  offset="0.4795" style="stop-color:#2D2D2D"/>
			<stop  offset="0.5822" style="stop-color:#0C0C0C"/>
			<stop  offset="0.6386" style="stop-color:#000000"/>
		</linearGradient>
		<rect x="41.3" y="6.5" class="st1" width="300" height="156"/>
	</g>
</mask>
<g class="st2">
	<polygon points="72.1,8.1 134.1,8.1 117.7,36.5 57.1,36.5 	"/>
	<polygon class="st3" points="134,8 117.9,36.5 150,36.5 	"/>
	<polygon class="st3" points="149.9,36.3 133.8,64.8 166,64.8 	"/>
	<polygon class="st3" points="134,64.7 117.9,93.2 150,93.2 	"/>
	<polygon class="st4" points="102.1,64.7 86,93.2 118.2,93.2 	"/>
	<polygon class="st4" points="70.2,64.7 54.1,93.2 86.3,93.2 	"/>
	<polygon class="st5" points="134,65 150,36.5 117.9,36.5 	"/>
	<polygon class="st6" points="118,93.3 134.1,64.8 102,64.8 	"/>
	<polygon points="86.2,93.3 102.2,64.8 70.1,64.8 	"/>
	<polygon points="54.3,93.3 70.3,64.8 38.2,64.8 	"/>
	<polygon points="149.9,93.3 166,64.8 133.8,64.8 	"/>
	<polygon class="st7" points="152.6,100.1 136.5,128.6 168.6,128.6 	"/>
	<polygon points="120.7,100.1 104.6,128.6 136.8,128.6 	"/>
	<polygon class="st7" points="88.8,100.1 72.7,128.6 104.9,128.6 	"/>
	<polygon class="st4" points="136.6,128.7 152.7,100.2 120.6,100.2 	"/>
	<polygon class="st6" points="104.7,128.7 120.8,100.2 88.7,100.2 	"/>
	<polygon points="72.9,128.7 88.9,100.2 56.8,100.2 	"/>
	<polygon class="st7" points="171.2,135.5 155.1,164 187.2,164 	"/>
	<polygon class="st7" points="139.3,135.5 123.2,164 155.4,164 	"/>
	<polygon class="st7" points="107.4,135.5 91.3,164 123.5,164 	"/>
	<polygon points="155.2,164.1 171.3,135.7 139.2,135.7 	"/>
	<polygon points="123.3,164.1 139.4,135.7 107.3,135.7 	"/>
	<polygon points="91.5,164.1 107.5,135.7 75.4,135.7 	"/>
	<polygon class="st8" points="302.1,8.1 240.1,8.1 256.5,36.5 317.1,36.5 	"/>
	<polygon class="st3" points="240.2,8 256.3,36.5 224.2,36.5 	"/>
	<polygon class="st3" points="224.3,36.3 240.4,64.8 208.2,64.8 	"/>
	<polygon class="st9" points="240.2,64.7 256.3,93.2 224.2,93.2 	"/>
	<polygon class="st10" points="272.1,64.7 288.2,93.2 256,93.2 	"/>
	<polygon class="st11" points="304,64.7 320.1,93.2 287.9,93.2 	"/>
	<polygon class="st5" points="240.2,65 224.2,36.5 256.3,36.5 	"/>
	<polygon class="st12" points="256.2,93.3 240.1,64.8 272.3,64.8 	"/>
	<polygon class="st12" points="288.1,93.3 272,64.8 304.1,64.8 	"/>
	<polygon class="st13" points="319.9,93.3 303.9,64.8 336,64.8 	"/>
	<polygon points="224.3,93.3 208.2,64.8 240.4,64.8 	"/>
	<polygon class="st9" points="221.6,100.1 237.7,128.6 205.6,128.6 	"/>
	<polygon class="st13" points="253.5,100.1 269.6,128.6 237.4,128.6 	"/>
	<polygon class="st12" points="285.4,100.1 301.5,128.6 269.3,128.6 	"/>
	<polygon class="st12" points="237.6,128.7 221.5,100.2 253.7,100.2 	"/>
	<polygon class="st11" points="269.5,128.7 253.4,100.2 285.5,100.2 	"/>
	<polygon class="st13" points="301.3,128.7 285.3,100.2 317.4,100.2 	"/>
	<polygon class="st12" points="203,135.5 219.1,164 187,164 	"/>
	<polygon class="st14" points="234.9,135.5 251,164 218.9,164 	"/>
	<polygon class="st14" points="266.8,135.5 282.9,164 250.7,164 	"/>
	<polygon class="st9" points="219,164.1 202.9,135.7 235.1,135.7 	"/>
	<polygon class="st13" points="250.9,164.1 234.8,135.7 266.9,135.7 	"/>
	<polygon class="st12" points="282.7,164.1 266.7,135.7 298.8,135.7 	"/>
	<g>
		<polygon class="st15" points="149.6,93.2 186.8,164 186.8,64.8 165.5,64.8 		"/>
		<polygon class="st15" points="208.7,64.8 187.4,64.8 187.4,164 224.6,93.2 		"/>
	</g>
</g>
<linearGradient id="SVGID_3_" gradientUnits="userSpaceOnUse" x1="338.4" y1="152.7" x2="338.4" y2="152.7">
	<stop  offset="0" style="stop-color:#FFFFFF;stop-opacity:0"/>
	<stop  offset="1" style="stop-color:#FFFFFF;stop-opacity:0"/>
</linearGradient>
<path class="st16" d="M338.4,152.7"/>
<linearGradient id="SVGID_4_" gradientUnits="userSpaceOnUse" x1="299.5" y1="854.4" x2="364.4" y2="854.4" gradientTransform="matrix(1 0 0 1 0 -726)">
	<stop  offset="0" style="stop-color:#FF0000"/>
	<stop  offset="0.19" style="stop-color:#FB0100"/>
	<stop  offset="0.3584" style="stop-color:#F10300"/>
	<stop  offset="0.5186" style="stop-color:#DF0700"/>
	<stop  offset="0.6738" style="stop-color:#C50C00"/>
	<stop  offset="0.8253" style="stop-color:#A41300"/>
	<stop  offset="0.9722" style="stop-color:#7C1B00"/>
	<stop  offset="1" style="stop-color:#741D00"/>
</linearGradient>
<linearGradient id="SVGID_5_" gradientUnits="userSpaceOnUse" x1="296.0346" y1="128.4" x2="367.8654" y2="128.4">
	<stop  offset="0" style="stop-color:#FFFFFF;stop-opacity:0"/>
	<stop  offset="1" style="stop-color:#FFFFFF;stop-opacity:0"/>
</linearGradient>
<polygon class="st17" points="338.6,139.8 338.5,139.6 351.5,117 351.4,116.8 364.4,94.3 338.2,94.3 338.3,94.5 325.3,117 
	325.4,117.3 312.4,139.8 312.5,140 299.5,162.5 325.3,162.5 325.8,162.5 351.5,162.5 351.4,162.3 364.4,139.8 "/>
<linearGradient id="SVGID_6_" gradientUnits="userSpaceOnUse" x1="849.5372" y1="131" x2="916.4628" y2="131">
	<stop  offset="0" style="stop-color:#FFFFFF;stop-opacity:0"/>
	<stop  offset="1" style="stop-color:#FFFFFF;stop-opacity:0"/>
</linearGradient>
<polygon class="st18" points="889.2,141.5 889.1,141.3 901.1,120.5 901,120.3 913,99.5 888.7,99.5 888.8,99.6 876.8,120.5 
	876.9,120.7 864.9,141.5 865,141.7 853,162.5 876.8,162.5 877.2,162.5 901.1,162.5 901,162.4 913,141.5 "/>
<linearGradient id="SVGID_7_" gradientUnits="userSpaceOnUse" x1="579.6798" y1="129.7" x2="689.3201" y2="129.7">
	<stop  offset="0" style="stop-color:#FFFFFF;stop-opacity:0"/>
	<stop  offset="1" style="stop-color:#FFFFFF;stop-opacity:0"/>
</linearGradient>
<path class="st19" d="M674,119.5l11.8-19.8h-23.3h-0.4H642h-3.2h-20.5l0.1,0.2l-11.8,19.8l0.1,0.2l-11.8,19.8l0.1,0.2l-11.8,19.8
	h23.3h0.4H627h3.2h20.5l-0.1-0.2l11.8-19.8l-0.1-0.2l11.8-19.8L674,119.5z M638.7,139.7h-20.1l-0.1-0.2l11.8-19.8h20.1l0.1,0.2
	L638.7,139.7z"/>
<g>
	
		<linearGradient id="SVGID_8_" gradientUnits="userSpaceOnUse" x1="388.6" y1="834.35" x2="460.9" y2="834.35" gradientTransform="matrix(1 0 0 1 0 -726)">
		<stop  offset="0" style="stop-color:#741D00"/>
		<stop  offset="1" style="stop-color:#000000"/>
	</linearGradient>
	<linearGradient id="SVGID_9_" gradientUnits="userSpaceOnUse" x1="385.1793" y1="108.3495" x2="464.3207" y2="108.3495">
		<stop  offset="0" style="stop-color:#FFFFFF;stop-opacity:0"/>
		<stop  offset="1" style="stop-color:#FFFFFF;stop-opacity:0"/>
	</linearGradient>
	<polygon class="st20" points="450.6,117.5 460.9,99.2 440.3,99.2 440.3,99.2 440.2,99.1 440.2,99.2 440.2,99.2 419.7,99.2 
		419.7,99.2 419.6,99.1 419.6,99.2 419.5,99.2 399.1,99.2 399,99.1 398.9,99.2 398.9,99.2 398.9,99.2 388.6,117.5 409.2,117.5 
		409.3,117.5 409.3,117.6 409.4,117.5 409.4,117.5 429.8,117.5 429.9,117.5 429.9,117.6 430,117.5 430,117.5 450.5,117.5 
		450.6,117.6 	"/>
	
		<linearGradient id="SVGID_10_" gradientUnits="userSpaceOnUse" x1="376.6" y1="857.25" x2="448.9" y2="857.25" gradientTransform="matrix(1 0 0 1 0 -726)">
		<stop  offset="0" style="stop-color:#741D00"/>
		<stop  offset="1" style="stop-color:#000000"/>
	</linearGradient>
	<linearGradient id="SVGID_11_" gradientUnits="userSpaceOnUse" x1="373.1793" y1="131.2501" x2="452.3207" y2="131.2501">
		<stop  offset="0" style="stop-color:#FFFFFF;stop-opacity:0"/>
		<stop  offset="1" style="stop-color:#FFFFFF;stop-opacity:0"/>
	</linearGradient>
	<polygon class="st21" points="428.3,122.1 428.3,122.1 428.2,122 428.2,122.1 428.1,122.1 407.7,122.1 407.6,122.1 407.6,122 
		407.5,122.1 407.5,122.1 387,122.1 387,122 386.9,122.1 386.9,122.1 386.9,122.1 376.6,140.4 397.2,140.4 397.2,140.4 397.3,140.5 
		397.3,140.4 397.4,140.4 417.8,140.4 417.9,140.4 417.9,140.5 418,140.4 418,140.4 438.5,140.4 438.5,140.5 438.6,140.4 
		438.6,140.4 438.6,140.4 448.9,122.1 	"/>
	
		<linearGradient id="SVGID_12_" gradientUnits="userSpaceOnUse" x1="364.5" y1="880.15" x2="436.9" y2="880.15" gradientTransform="matrix(1 0 0 1 0 -726)">
		<stop  offset="0" style="stop-color:#741D00"/>
		<stop  offset="1" style="stop-color:#000000"/>
	</linearGradient>
	<linearGradient id="SVGID_13_" gradientUnits="userSpaceOnUse" x1="361.063" y1="154.1503" x2="440.3207" y2="154.1503">
		<stop  offset="0" style="stop-color:#FFFFFF;stop-opacity:0"/>
		<stop  offset="1" style="stop-color:#FFFFFF;stop-opacity:0"/>
	</linearGradient>
	<polygon class="st22" points="416.3,145 416.2,145 416.2,144.9 416.1,145 416.1,145 395.7,145 395.6,145 395.6,144.9 395.5,145 
		395.5,145 375,145 374.9,144.9 374.9,145 374.9,145 374.9,145 364.5,163.3 385.2,163.3 385.2,163.3 385.3,163.4 385.3,163.3 
		385.3,163.3 405.8,163.3 405.8,163.3 405.9,163.4 405.9,163.3 406,163.3 426.4,163.3 426.5,163.4 426.5,163.3 426.6,163.3 
		426.6,163.3 436.9,145 	"/>
</g>
<linearGradient id="SVGID_14_" gradientUnits="userSpaceOnUse" x1="523.0372" y1="130.9" x2="609.9617" y2="130.9">
	<stop  offset="0" style="stop-color:#FFFFFF;stop-opacity:0"/>
	<stop  offset="1" style="stop-color:#FFFFFF;stop-opacity:0"/>
</linearGradient>
<polygon class="st23" points="606.5,99.3 582.3,99.3 582.3,99.5 562.7,99.5 562.2,99.5 538.4,99.5 538.5,99.6 526.5,120.5 
	550.3,120.5 550.4,120.7 538.4,141.5 538.5,141.7 526.5,162.5 550.8,162.5 550.7,162.4 562.7,141.5 562.6,141.3 574.6,120.5 
	574.5,120.3 596,120.3 595.2,118.9 "/>
<linearGradient id="SVGID_15_" gradientUnits="userSpaceOnUse" x1="774.8795" y1="860.7055" x2="756.8229" y2="850.2804" gradientTransform="matrix(1 0 0 1 0 -726)">
	<stop  offset="0" style="stop-color:#5400D4"/>
	<stop  offset="0.1244" style="stop-color:#4800B7"/>
	<stop  offset="0.5563" style="stop-color:#220055"/>
	<stop  offset="0.8575" style="stop-color:#090018"/>
	<stop  offset="1" style="stop-color:#000000"/>
</linearGradient>
<linearGradient id="SVGID_16_" gradientUnits="userSpaceOnUse" x1="733.5255" y1="129.3944" x2="798.3594" y2="129.3944">
	<stop  offset="0" style="stop-color:#FFFFFF;stop-opacity:0"/>
	<stop  offset="1" style="stop-color:#FFFFFF;stop-opacity:0"/>
</linearGradient>
<polygon class="st24" points="783.5,119.4 794.9,99.6 771.5,99.6 771.5,99.5 771.4,99.6 771.1,99.6 771.3,99.9 760,119.4 
	759.7,119.4 759.9,119.6 759.7,119.8 759.9,119.8 748.6,139.3 748.4,139.3 748.5,139.5 748.4,139.7 748.5,139.7 737,159.5 
	760.1,159.5 760.3,159.9 772.2,139.3 772.1,139.3 783.6,119.4 "/>
<linearGradient id="SVGID_17_" gradientUnits="userSpaceOnUse" x1="779.4" y1="854.35" x2="872.4" y2="854.35" gradientTransform="matrix(1 0 0 1 0 -726)">
	<stop  offset="0" style="stop-color:#5400D4"/>
	<stop  offset="0.1244" style="stop-color:#4800B7"/>
	<stop  offset="0.5563" style="stop-color:#220055"/>
	<stop  offset="0.8575" style="stop-color:#090018"/>
	<stop  offset="1" style="stop-color:#000000"/>
</linearGradient>
<linearGradient id="SVGID_18_" gradientUnits="userSpaceOnUse" x1="775.9426" y1="129.1333" x2="875.8697" y2="129.1333">
	<stop  offset="0" style="stop-color:#FFFFFF;stop-opacity:0"/>
	<stop  offset="1" style="stop-color:#FFFFFF;stop-opacity:0"/>
</linearGradient>
<polygon class="st25" points="860.7,117.9 872.4,97.7 849.2,97.7 848.8,97.7 825.7,97.7 825.8,97.9 824.3,100.4 812.9,100.4 
	812.8,100.3 812.8,100.4 812.4,100.4 812.6,100.7 801.6,119.7 801.4,119.7 801.5,119.9 801.4,120.1 801.5,120.1 790.6,139 
	790.4,139 790.5,139.2 790.4,139.4 790.5,139.4 779.4,158.7 801.8,158.7 802,159 813.5,139 813.4,139 824.6,119.7 824.4,119.7 
	825.4,118.1 837.2,118.1 837.3,118.3 833.1,125.7 824.5,125.7 816.6,141.5 824.2,141.5 814.1,158.9 837.7,158.9 837.6,158.8 
	849.2,138.5 849.1,138.3 860.8,118.1 "/>
<linearGradient id="SVGID_19_" gradientUnits="userSpaceOnUse" x1="435.6147" y1="131.0946" x2="531.8629" y2="131.0946">
	<stop  offset="0" style="stop-color:#FFFFFF;stop-opacity:0"/>
	<stop  offset="1" style="stop-color:#FFFFFF;stop-opacity:0"/>
</linearGradient>
<polygon class="st26" points="516.5,120.7 516.4,120.5 528.4,99.7 504.2,99.7 504.3,99.9 492.3,120.7 482.2,120.7 482.1,120.5 
	494.1,99.7 471.7,99.5 459.2,123.4 459.3,123.6 450.9,141.3 450.9,141.1 439,162.7 463.3,162.7 463.2,162.5 475.2,141.7 
	485.3,141.7 485.4,141.9 473.3,162.7 497.6,162.7 497.5,162.5 509.5,141.7 501.7,128.1 506,120.7 "/>
<linearGradient id="SVGID_20_" gradientUnits="userSpaceOnUse" x1="662.5956" y1="129.8" x2="758.8629" y2="129.8">
	<stop  offset="0" style="stop-color:#FFFFFF;stop-opacity:0"/>
	<stop  offset="1" style="stop-color:#FFFFFF;stop-opacity:0"/>
</linearGradient>
<path class="st27" d="M743.5,119.3l-0.1-0.2l12-20.8h-18.8l0,0h-23.2l0,0l-15.9,0.2l-7.8,15.6h-0.1l-1,2.2l-2.5,5.1l0.1,0.2
	l-10,21.4L666,161.3h24.3l-0.1-0.2l12-20.8h10.1l0.1,0.2l-12,20.8h24.3l-0.1-0.2l12-20.8l-7.8-13.5l4.3-7.5H743.5z M719.2,119.3
	h-10.1l-0.1-0.2l8.2-14.2l5.1,8.9L719.2,119.3z"/>
<g>
	<g>
		<path class="st28" d="M770.2,104.7c-1.5-0.4-3-1.1-4.3-2c-1.4-0.9-2.6-1.9-3.7-3.2c-2.1-2.5-3.3-6.1-3-9.5l0.1-1.3l0.1-0.6
			c0-0.2,0.1-0.5,0.1-0.7c0.2-0.8,0.4-1.7,0.7-2.4c0.6-1.6,1.4-3.1,2.5-4.5s2.4-2.6,4-3.5s3.3-1.5,5.1-1.8l-1.5,2.7
			c-0.9-2.1-1.5-4.4-1.5-6.7c-0.1-2.3,0.4-4.7,1.4-6.8s2.4-4,4.1-5.5c1.8-1.5,3.7-2.6,5.9-3.4l0.2-0.1h0.1c2.7-0.4,5.5-0.1,8,0.9
			s4.7,2.8,6.3,4.9c0.2,0.3,0.4,0.5,0.6,0.8c0.3,0.4,0.4,0.6,0.5,1c0.3,0.6,0.5,1.2,0.7,1.8c0.4,1.2,0.6,2.5,0.6,3.8
			c0.1,2.5-0.4,5.1-1.4,7.3c0.5-2.4,0.5-4.8,0-7.1c-0.2-1.1-0.6-2.3-1.1-3.3c-0.2-0.5-0.5-1-0.8-1.5c-0.1-0.2-0.3-0.5-0.4-0.6
			c-0.2-0.2-0.4-0.4-0.6-0.6c-1.6-1.6-3.5-2.9-5.5-3.5c-2.1-0.7-4.3-0.7-6.4-0.3l0.3-0.1c-1.6,0.7-3.2,1.7-4.5,2.9s-2.4,2.7-3.1,4.3
			c-0.7,1.6-1,3.4-1,5.1c0,1.8,0.4,3.6,1.1,5.2l1,2.3l-2.5,0.4c-1.3,0.2-2.6,0.5-3.8,1.2c-1.2,0.6-2.2,1.5-3.1,2.5
			c-1.7,2.1-3.2,4.8-3.5,7.6c-0.5,2.8,0.1,5.7,1.6,8.2C765.1,101.1,767.5,103.2,770.2,104.7z"/>
	</g>
	<g>
		<path class="st28" d="M787.1,56c0.8-1.4,1.9-2.7,3.1-3.8c1.2-1.2,2.5-2.2,4-3.1c1.5-0.9,3.2-1.4,4.9-1.7c1.8-0.3,3.6-0.1,5.4,0.4
			l-1.6,0.5c1.5-2,3.4-3.7,5.7-4.8c2.3-1.2,4.8-1.9,7.3-1.9c2.5-0.1,5,0.3,7.4,1.2s4.6,2.3,6.4,4.1l0.1,0.1l0.1,0.1
			c0.9,1.1,1.7,2.3,2.4,3.5c0.7,1.3,1.2,2.6,1.6,4c0.4,1.4,0.6,2.8,0.7,4.2c0.1,1.4-0.1,2.9-0.4,4.3V63c-0.2,1.8-0.7,3.6-1.4,5.2
			s-1.7,3.1-2.9,4.4s-2.6,2.4-4.1,3.2s-3.1,1.4-4.8,1.7c3-1.4,5.7-3.5,7.4-6.1c0.9-1.3,1.6-2.7,2-4.2s0.7-3,0.8-4.5v-0.1
			c0.2-2.4,0-4.7-0.8-7c-0.8-2.2-2-4.3-3.5-6.1l0.1,0.1c-1.4-1.4-3.2-2.5-5-3.2c-1.9-0.7-3.9-1.1-6-1.1c-2,0-4,0.4-5.9,1.2
			c-1.8,0.8-3.5,2.1-4.9,3.6l-0.7,0.8l-0.9-0.3c-1.3-0.4-2.7-0.8-4.2-0.7s-2.9,0.4-4.4,0.9c-1.4,0.6-2.8,1.3-4.1,2.2
			C789.5,53.8,788.2,54.8,787.1,56z"/>
	</g>
	<g>
		<path class="st28" d="M829.6,46c1.2-0.5,2.4-1,3.6-1.5c1.2-0.5,2.4-1,3.6-1.4h0.1c1.6-0.4,3.2-0.6,4.8-0.7c1.6-0.1,3.3,0,4.9,0.3
			c3.3,0.5,6.5,1.9,9.2,4.1c1.3,1.1,2.5,2.4,3.5,3.7c1,1.4,1.8,2.8,2.5,4.4c1.4,3.1,2.2,6.5,2.1,10l-1.3-2.3l5.4,2.9
			c2,1,3.9,2.5,5.4,4.2c1.6,1.7,2.8,3.7,3.7,5.8c0.4,1.1,0.8,2.1,1,3.3s0.3,2.2,0.4,3.3c0.1,2.2-0.1,4.4-0.6,6.5s-1.3,4.2-2.3,6.1
			c-2.1,3.8-5.1,6.9-8.6,9c2.8-3,5.1-6.3,6.3-10c1.3-3.6,1.6-7.5,1.1-11.2c-0.1-0.9-0.3-1.9-0.5-2.7s-0.6-1.7-1-2.5
			c-0.8-1.6-1.8-3-3-4.3s-2.7-2.3-4.3-3.1l-5.4-2.8l-1.4-0.7v-1.6c0.1-2.7-0.4-5.4-1.5-8s-2.5-5-4.5-6.9s-4.4-3.2-7.2-4.1
			c-2.7-0.8-5.7-1.1-8.7-1h0.1c-1.3,0.3-2.6,0.4-3.9,0.7C832.2,45.6,830.9,45.8,829.6,46z"/>
	</g>
	<g>
		<path class="st28" d="M806.1,60c0.4-1,1.1-1.8,1.9-2.5c0.8-0.7,1.8-1.2,2.8-1.6c1.1-0.4,2.2-0.5,3.4-0.4c1.2,0,2.3,0.5,3.3,1
			l0.2,0.1l0,0c0.4,0.3,0.6,0.5,0.9,0.7c0.2,0.3,0.5,0.5,0.7,0.8c0.4,0.6,0.8,1.2,1,1.8c0.3,0.6,0.4,1.3,0.5,2s0,1.3-0.3,2
			c-0.4-0.5-0.8-1-1.2-1.4s-0.8-0.8-1.2-1.1s-0.8-0.6-1.2-0.9c-0.2-0.1-0.4-0.3-0.6-0.4c-0.2-0.1-0.4-0.3-0.5-0.3l0.2,0.1
			c-0.7-0.2-1.4-0.4-2.2-0.5c-0.7-0.1-1.5-0.1-2.3-0.1C809.9,59.4,808.2,59.7,806.1,60z"/>
	</g>
	<g>
		<path class="st28" d="M796.4,71c1.8,0.8,3.3,1.6,4.7,2.2c0.7,0.3,1.4,0.5,2,0.7c0.6,0.1,1.2,0.2,1.8,0.2h0.2
			c0.3,0,0.8,0.1,1.2,0.1s0.9,0,1.4,0s0.9-0.1,1.4-0.2s1-0.2,1.6-0.5c-0.1,0.6-0.3,1.2-0.7,1.7s-0.8,1-1.4,1.3
			c-0.5,0.4-1.1,0.7-1.7,0.9c-0.6,0.2-1.1,0.4-1.9,0.4h0.2c-1.1,0.2-2.3,0.1-3.4-0.2c-1.1-0.3-2-0.9-2.8-1.5
			c-0.8-0.7-1.4-1.5-1.9-2.3C796.9,72.9,796.5,72,796.4,71z"/>
	</g>
	<g>
		<path class="st28" d="M787.1,77.2c0,1,0,1.9,0.1,2.7c0.1,0.9,0.3,1.7,0.5,2.3c0.3,0.7,0.7,1.2,1.1,1.6c0.4,0.4,1,0.7,1.6,0.9
			l0.6,0.4c-0.1-0.1-0.1-0.1-0.1-0.1l0,0l0.1,0.1c0.1,0.1,0.2,0.1,0.4,0.1c0.3,0.1,0.6,0.2,0.9,0.3c0.7,0.1,1.4,0.2,2.2,0.3l0.2,3.9
			c-0.5,0-1.1,0.1-1.6,0.2c-0.6,0.1-1.1,0.2-1.6,0.4s-1,0.3-1.4,0.6c-0.4,0.2-0.7,0.5-0.9,0.9l-0.1,0.2l-1.1,1.3l-0.5,0.7
			c-0.2,0.2-0.4,0.4-0.5,0.7c-0.1-0.3-0.1-0.6-0.1-0.9s0.1-0.6,0.1-0.9c0.1-0.6,0.2-1.2,0.3-1.7l-0.1,0.2c0-0.9,0.4-1.8,1-2.4
			c0.5-0.7,1.2-1.2,1.8-1.6c0.7-0.4,1.3-0.7,2-1c0.7-0.2,1.3-0.4,2.2-0.6l0.2,3.9c-0.5,0-1,0-1.5,0s-1-0.1-1.5-0.2s-1-0.3-1.6-0.5
			c-0.3-0.1-0.5-0.2-0.8-0.4c-0.1-0.1-0.3-0.2-0.4-0.3l-0.2-0.2c-0.1-0.1-0.1-0.1-0.3-0.3l0.6,0.4c-1-0.6-2-1.2-2.7-2.3
			c-0.7-1-1.1-2.2-1.1-3.3s0.2-2.1,0.6-3.1C785.9,78.8,786.4,77.9,787.1,77.2z"/>
	</g>
	<g>
		<path class="st28" d="M833.9,60.3c1.1,1.4,2.2,2.2,3.4,2.7c1.1,0.5,2.3,0.7,3.6,0.9c1.2,0.1,2.7,0.1,4,0.1
			c1.4-0.1,2.8-0.2,4.6-0.6c-0.7,1.6-2.2,2.9-3.8,3.6c-0.8,0.4-1.7,0.6-2.6,0.8c-0.9,0.1-1.8,0.2-2.8,0.1c-1.8-0.2-3.7-1-5.1-2.4
			C834,64.1,833.4,62.1,833.9,60.3z"/>
	</g>
	<g>
		<path class="st28" d="M853,79.4c-1.4,1.8-2.5,3.5-3.1,5.2c-0.3,0.8-0.5,1.7-0.6,2.5s0,1.7,0,2.6v-0.2c0,0.1,0.1,0.5,0.2,0.8
			c0.1,0.3,0.2,0.6,0.4,0.9c0.3,0.6,0.6,1.1,1,1.6s0.9,1,1.4,1.5c0.3,0.3,0.6,0.4,0.9,0.7l1,0.7c-0.8,0.2-1.7,0.4-2.6,0.2
			c-0.9-0.1-1.8-0.4-2.6-0.9s-1.6-1.1-2.1-1.9c-0.3-0.4-0.6-0.8-0.8-1.2c-0.1-0.2-0.2-0.4-0.3-0.7c-0.1-0.2-0.2-0.4-0.3-0.8l0,0
			v-0.1c-0.2-1.2-0.3-2.5,0-3.8c0.2-1.3,0.7-2.5,1.5-3.6c0.7-1,1.7-1.9,2.7-2.5C850.7,79.8,851.8,79.4,853,79.4z"/>
	</g>
</g>
<text transform="matrix(1.0763 0 0 1 572.998 197.0225)" class="st29 st30">PORTALI I ZGJED</text>
<text transform="matrix(1.0763 0 0 1 572.998 197.0225)" class="st31 st29 st30">PORTALI I ZGJED</text>
<text transform="matrix(1.0763 0 0 1 740.0996 197.2725)" class="st32 st29 st30">HË</text>
<text transform="matrix(1.0763 0 0 1 740.0996 197.2725)" class="st33 st29 st30">HË</text>
<text transform="matrix(1.0763 0 0 1 767.9873 197.2725)" class="st34 st29 st30">SIT SHQ</text>
<text transform="matrix(1.0763 0 0 1 767.9873 197.2725)" class="st35 st29 st30">SIT SHQ</text>
<text transform="matrix(1.0763 0 0 1 846.6172 197.2725)" class="st32 st29 st30">IP</text>
<text transform="matrix(1.0763 0 0 1 846.6172 197.2725)" class="st33 st29 st30">IP</text>
<text transform="matrix(1.0763 0 0 1 867.0391 197.2725)" class="st29 st30">TAR</text>
<text transform="matrix(1.0763 0 0 1 867.0391 197.2725)" class="st31 st29 st30">TAR</text>
</svg>
