<?xml version="1.0" encoding="utf-8"?>
<!-- Generator: Adobe Illustrator 22.1.0, SVG Export Plug-In . SVG Version: 6.00 Build 0)  -->
<svg version="1.1" id="Layer_1" xmlns="http://www.w3.org/2000/svg" xmlns:xlink="http://www.w3.org/1999/xlink" x="0px" y="0px"
	 viewBox="0 0 1600 300" style="enable-background:new 0 0 1600 300;" xml:space="preserve">
<style type="text/css">
	.st0{fill:url(#SVGID_1_);}
	.st1{opacity:0.68;fill:url(#SVGID_2_);}
	.st2{fill:#161616;}
	.st3{fill:#7C7C7C;}
	.st4{fill:#0A0A0A;}
	.st5{fill:#474646;}
	.st6{fill:#230000;}
	.st7{fill:#870000;}
	.st8{fill:#FF0000;}
	.st9{fill:#890000;}
	.st10{fill:#A50000;}
	.st11{fill:#E00000;}
	.st12{fill:#BF0000;}
</style>
<linearGradient id="SVGID_1_" gradientUnits="userSpaceOnUse" x1="0" y1="295" x2="1600" y2="295">
	<stop  offset="0" style="stop-color:#ED0000"/>
	<stop  offset="1.860278e-02" style="stop-color:#C60000"/>
	<stop  offset="4.166132e-02" style="stop-color:#9D0000"/>
	<stop  offset="6.758928e-02" style="stop-color:#770000"/>
	<stop  offset="9.580867e-02" style="stop-color:#570000"/>
	<stop  offset="0.127" style="stop-color:#3B0000"/>
	<stop  offset="0.1622" style="stop-color:#250000"/>
	<stop  offset="0.2033" style="stop-color:#150000"/>
	<stop  offset="0.2541" style="stop-color:#090000"/>
	<stop  offset="0.3252" style="stop-color:#020000"/>
	<stop  offset="0.5223" style="stop-color:#000000"/>
	<stop  offset="0.7308" style="stop-color:#020202"/>
	<stop  offset="0.8059" style="stop-color:#080908"/>
	<stop  offset="0.8595" style="stop-color:#131413"/>
	<stop  offset="0.9028" style="stop-color:#232523"/>
	<stop  offset="0.9394" style="stop-color:#383B38"/>
	<stop  offset="0.9717" style="stop-color:#515651"/>
	<stop  offset="0.9752" style="stop-color:#545954"/>
</linearGradient>
<rect y="290" class="st0" width="1600" height="10"/>
<linearGradient id="SVGID_2_" gradientUnits="userSpaceOnUse" x1="0" y1="285" x2="1600" y2="285">
	<stop  offset="0" style="stop-color:#4B00FF"/>
	<stop  offset="3.803980e-03" style="stop-color:#4800F6"/>
	<stop  offset="2.490536e-02" style="stop-color:#3B00C8"/>
	<stop  offset="4.866841e-02" style="stop-color:#2E009D"/>
	<stop  offset="7.422374e-02" style="stop-color:#230077"/>
	<stop  offset="0.102" style="stop-color:#190057"/>
	<stop  offset="0.1328" style="stop-color:#11003B"/>
	<stop  offset="0.1674" style="stop-color:#0B0025"/>
	<stop  offset="0.2079" style="stop-color:#060015"/>
	<stop  offset="0.258" style="stop-color:#030009"/>
	<stop  offset="0.3281" style="stop-color:#010002"/>
	<stop  offset="0.5223" style="stop-color:#000000"/>
	<stop  offset="0.6911" style="stop-color:#010002"/>
	<stop  offset="0.7519" style="stop-color:#030009"/>
	<stop  offset="0.7952" style="stop-color:#060014"/>
	<stop  offset="0.8303" style="stop-color:#0B0025"/>
	<stop  offset="0.8603" style="stop-color:#11003B"/>
	<stop  offset="0.8869" style="stop-color:#190057"/>
	<stop  offset="0.911" style="stop-color:#230077"/>
	<stop  offset="0.9331" style="stop-color:#2E009D"/>
	<stop  offset="0.9537" style="stop-color:#3B00C8"/>
	<stop  offset="0.9719" style="stop-color:#4800F6"/>
	<stop  offset="0.9752" style="stop-color:#4B00FF"/>
</linearGradient>
<rect y="280" class="st1" width="1600" height="10"/>
<g>
	<polygon points="600.9,163.1 709.4,163.1 680.7,200.4 574.7,200.4 	"/>
	<polygon class="st2" points="709.2,163 681,200.4 737.2,200.4 	"/>
	<polygon class="st3" points="737,200.1 708.8,237.5 765.2,237.5 	"/>
	<polygon class="st3" points="701.3,236.4 670.9,290.1 731.4,290.1 	"/>
	<polygon class="st4" points="641.1,236.4 610.8,290.1 671.5,290.1 	"/>
	<polygon class="st4" points="581,236.4 550.6,290.1 611.3,290.1 	"/>
	<polygon points="709.2,237.7 737.2,200.4 681,200.4 	"/>
	<polygon class="st2" points="671.1,290.3 701.4,236.6 640.9,236.6 	"/>
	<polygon points="611.1,290.3 641.3,236.6 580.8,236.6 	"/>
	<polygon points="551,290.3 581.2,236.6 520.6,236.6 	"/>
	<polygon points="731.2,290.3 761.6,236.6 700.9,236.6 	"/>
	<polygon class="st5" points="521.1,237.1 490.7,290.9 551.3,290.9 	"/>
	<polygon points="461,237.1 430.6,290.9 491.3,290.9 	"/>
	<polygon class="st5" points="400.8,237.1 370.5,290.9 431.2,290.9 	"/>
	<polygon class="st4" points="490.9,291.1 521.3,237.3 460.8,237.3 	"/>
	<polygon class="st2" points="430.8,291.1 461.1,237.3 400.6,237.3 	"/>
	<polygon points="370.8,291.1 401,237.3 340.5,237.3 	"/>
	<polygon class="st2" points="340.1,236.3 309.8,290 370.3,290 	"/>
	<polygon class="st4" points="280,236.3 249.6,290 310.4,290 	"/>
	<polygon class="st5" points="219.9,236.3 189.5,290 250.2,290 	"/>
	<polygon points="310,290.2 340.3,236.7 279.8,236.7 	"/>
	<polygon points="249.8,290.2 280.2,236.7 219.7,236.7 	"/>
	<polygon points="189.9,290.2 220,236.7 159.5,236.7 	"/>
	<polygon class="st6" points="1003.3,163.1 894.8,163.1 923.5,200.4 1029.5,200.4 	"/>
	<polygon class="st7" points="895,163 923.2,200.4 867,200.4 	"/>
	<polygon class="st8" points="867.2,200.1 895.3,237.5 839,237.5 	"/>
	<polygon class="st8" points="901.5,236.4 931.8,290.1 871.3,290.1 	"/>
	<polygon class="st7" points="961.6,236.4 992,290.1 931.3,290.1 	"/>
	<polygon class="st9" points="1021.8,236.4 1052.1,290.1 991.4,290.1 	"/>
	<polygon class="st10" points="895,237.7 867,200.4 923.2,200.4 	"/>
	<polygon class="st11" points="931.7,290.3 901.3,236.6 962,236.6 	"/>
	<polygon class="st11" points="991.8,290.3 961.5,236.6 1022,236.6 	"/>
	<polygon class="st12" points="1051.8,290.3 1021.6,236.6 1082.1,236.6 	"/>
	<polygon points="871.5,290.3 841.2,236.6 901.9,236.6 	"/>
	<polygon class="st8" points="1262.4,236.9 1292.7,290.6 1232.2,290.6 	"/>
	<polygon class="st12" points="1322.5,236.9 1352.9,290.6 1292.2,290.6 	"/>
	<polygon class="st11" points="1382.7,236.9 1413,290.6 1352.3,290.6 	"/>
	<polygon class="st11" points="1292.5,290.8 1262.2,237 1322.9,237 	"/>
	<polygon class="st9" points="1352.7,290.8 1322.3,237 1382.9,237 	"/>
	<polygon class="st12" points="1412.6,290.8 1382.5,237 1443,237 	"/>
	<polygon class="st11" points="1082.1,236 1112.5,289.7 1052,289.7 	"/>
	<polygon class="st10" points="1142.3,236 1172.6,289.7 1112.1,289.7 	"/>
	<polygon class="st10" points="1202.4,236 1232.8,289.7 1172.1,289.7 	"/>
	<polygon class="st8" points="1112.3,289.9 1081.9,236.4 1142.6,236.4 	"/>
	<polygon class="st12" points="1172.4,289.9 1142.1,236.4 1202.6,236.4 	"/>
	<polygon class="st11" points="1232.4,289.9 1202.2,236.4 1262.7,236.4 	"/>
	<rect x="731.7" y="236.4" width="139.8" height="53.8"/>
</g>
</svg>
