<?xml version="1.0" encoding="utf-8"?>
<!-- Generator: Adobe Illustrator 22.1.0, SVG Export Plug-In . SVG Version: 6.00 Build 0)  -->
<svg version="1.1" id="Layer_1" xmlns="http://www.w3.org/2000/svg" xmlns:xlink="http://www.w3.org/1999/xlink" x="0px" y="0px"
	 viewBox="0 0 960 560" style="enable-background:new 0 0 960 560;" xml:space="preserve">
<style type="text/css">
	.st0{fill:#030303;}
	.st1{fill:#020202;}
	.st2{fill:#010101;}
	.st3{fill:#040404;}
	.st4{fill:#060606;}
	.st5{fill:#080808;}
	.st6{fill:#F2F2F2;}
	.st7{fill:#F6F6F6;}
	.st8{fill:#DADADA;}
	.st9{fill:#D1D1D1;}
	.st10{fill:#C9C9C9;}
	.st11{fill:#D6D6D6;}
	.st12{fill:#F7F7F7;}
	.st13{fill:#D5D5D5;}
	.st14{fill:#CDCDCD;}
</style>
<g>
	<path d="M0.9,375.7c318,0,636.1,0,954.1,0c2.4,0,5.6-1.1,5,3.5c-0.2,1.6-0.6,2.3-2.2,2.1c-1.2-0.1-2.5,0-3.8,0
		c-317.7,0-635.5,0-953.2,0C0.9,379.4,0.9,377.5,0.9,375.7z"/>
	<path d="M316.4,194.1c5.3-10.7,10.7-21.5,16-32.2c1.8-3.6,3.6-7.3,5.5-10.9c0.7-1.3,0.7-3.4,2.7-3.3c2,0.1,2,2.2,2.6,3.5
		c11.3,22.5,22.5,44.9,33.7,67.4c19.7,39.5,39.4,79,59.1,118.6c0.3,0.7,0.6,1.4,1.1,2.4c-69.2,0-138,0-207,0
		c-0.5-1.7,0.9-3.1,1.6-4.5c16.5-33.3,33.2-66.5,49.7-99.8c1.7-3.5,4-3.7,7.8-3c-16.9,33.8-33.7,67.5-50.7,101.7
		c63.3,0,126.2,0,189.7,0c-29.2-58.5-58.3-116.9-87.8-176c-5.6,11.3-11,21.6-15.9,32.2C322.8,194,320.7,195.6,316.4,194.1z"/>
	<path d="M842.5,159c-5.6,11.3-11,21.6-15.9,32c-1.7,3.7-3.8,5.4-8.3,4c2.6-5.3,5.2-10.5,7.8-15.8c4.5-8.9,8.9-17.9,13.5-26.8
		c0.7-1.4,0.8-3.8,2.8-3.9c2.2-0.1,2.2,2.4,2.9,3.8c23.9,47.9,47.8,95.8,71.7,143.7c7.3,14.7,14.6,29.3,22.2,44.4
		c-69.3,0-138.2,0-207.6,0c5.8-11.8,11.6-23.3,17.3-34.9c11.4-22.9,23-45.8,34.3-68.8c1.8-3.7,3.9-4.7,8-3.4
		c-16.9,33.8-33.7,67.6-50.7,101.7c63.4,0,126.2,0,189.8,0C901.1,276.6,872,218.2,842.5,159z"/>
	<path d="M664.1,339.6c-4.5,1.3-6.9-0.3-9.2-3.8c-45.4-68.5-90.9-136.9-136.3-205.4c-1-1.5-2-3.1-3.4-5.1c3.6-0.1,6.3-0.8,8.6,2.8
		c46.2,69.8,92.6,139.5,138.9,209.3C663,338,663.4,338.6,664.1,339.6z"/>
	<path class="st0" d="M14.9,233c0,34.3,0,68.5-0.1,102.8c0,1.4,1.5,3.9-1.9,4.3c-3.5,0.4-3.6-1.3-3.6-4c0.1-23.5,0-46.9,0-70.4
		c0-45,0-90.1,0.1-135.1c0-1.7-1.5-4.7,2.6-4.5c2.2,0.1,3.2,0.5,2.9,2.9c-0.1,0.9,0,1.9,0,2.8C14.9,165.5,14.9,199.2,14.9,233z"/>
	<path class="st1" d="M658.8,216.1c0-28.6,0-57.2,0-85.8c0-1.9-1-4.4,2.9-4.3c3.6,0.1,2.6,2.3,2.6,4.1c0,57.5,0,115,0,172.5
		c0,2.1,0.4,3.8-2.9,3.8c-3.6,0-2.6-2.3-2.6-4.1C658.8,273.5,658.8,244.8,658.8,216.1z"/>
	<path class="st1" d="M520.8,249.9c0,28.8,0,57.5,0,86.3c0,2.3,0.2,4.3-3.2,3.9c-1.8-0.2-2.6-0.7-2.4-2.5c0.1-0.6,0-1.2,0-1.9
		c0-57.2,0-114.4,0.1-171.6c0-1.4-1.6-3.9,1.7-4.3c3.1-0.4,3.8,0.8,3.8,3.8C520.7,192.4,520.8,221.1,520.8,249.9z"/>
	<path class="st2" d="M302.2,194.2c9.8-19.7,19.5-39.2,29.3-58.7c1-2,2-3.9,2.9-5.9c1.3-2.8,2.5-4.7,6.4-4.7c3.9,0,5,2,6.3,4.7
		c10.3,20.7,20.6,41.3,30.9,62c0.4,0.8,0.7,1.7,1.1,2.5c-4.1,1.4-6.2-0.1-8.1-3.8c-9.7-20-19.8-39.9-29.8-59.9
		c-1.9,0.6-2,2.3-2.6,3.6c-9.4,18.8-19,37.6-28.1,56.5C308.6,194.4,306.3,195.2,302.2,194.2z"/>
	<path class="st2" d="M842.8,130.4c-6.5,13-12.6,25.1-18.6,37.2c-3.9,7.8-8,15.6-11.6,23.5c-1.7,3.7-3.9,5.3-8.3,4
		c2.2-4.4,4.3-8.8,6.5-13.2c8.7-17.4,17.5-34.8,26-52.4c1.4-2.9,3.1-3.7,6.1-3.6c2.9,0,4.3,0.8,5.6,3.5
		c10.7,21.8,21.6,43.5,32.6,65.4c-4,1.5-6.2,0.4-8-3.4C863.3,171.3,853.2,151.3,842.8,130.4z"/>
	<path class="st3" d="M158.4,236.8c0,33.3,0.1,66.6,0.2,99.9c0,2.1-0.1,3.4-2.9,3.4c-3.1,0-2.7-1.7-2.7-3.6
		c0-31.3-0.1-62.5,0.1-93.8c0-4-0.8-5.1-5-5.1c-38.8,0.2-77.5,0.1-116.3,0.1c-1.5,0-3.6,0.9-4.2-0.8c-0.5-1.3-1.4-4,2-3.8
		c0.8,0,1.6,0,2.3,0c40.8,0,81.6,0,122.4,0.1c1.3,0,3.1-1.1,4.1,0.9c-2.1,2-4.7,1.4-7.1,1.4c-39.6,0-79.1,0-118.7,0
		c39.6,0,79.1,0,118.7,0C153.7,235.4,156.3,234.8,158.4,236.8z"/>
	<path class="st3" d="M647.6,206.8c0-25.6,0-51.2,0-76.9c0-1.6-1-4,2.3-3.8c1.5,0.1,2.4,0.4,2.2,2.1c-0.1,0.8,0,1.6,0,2.3
		c0,50.6,0,101.2,0,151.8c0,1.4,1.1,3.5-0.9,4.1c-2.6,0.8-3.7-0.1-3.7-3.2c0.2-22.8,0.1-45.6,0.1-68.4
		C647.6,212.1,647.6,209.4,647.6,206.8z"/>
	<path class="st0" d="M532,260.5c0,25.2,0,50.3-0.1,75.5c0,1.5,1.3,3.9-2.1,4c-3.8,0.2-2.4-2.5-2.4-4.2c-0.1-50.5-0.1-101,0-151.5
		c0-1.5-1.4-3.9,2.1-4c3.8-0.1,2.4,2.5,2.4,4.1C532,209.9,532,235.2,532,260.5z"/>
	<path class="st1" d="M85.4,249c-18.1,0-36.3,0-54.4,0c-1.9,0-3.9,0.7-3.9-2.8c0-3.4,1.9-2.8,3.9-2.8c36.3,0,72.5,0,108.8,0
		c1.9,0,3.9-0.7,3.9,2.7c0,3.4-1.9,2.8-3.9,2.8C121.7,249,103.6,249,85.4,249z"/>
	<path class="st3" d="M159.5,161c0,10.3,0,20.6,0,31c0,1.8,0.6,3.6-2.6,3.7c-3.3,0.1-3-1.7-3-3.8c0-20.6,0-41.3,0-61.9
		c0-2-0.6-3.9,2.8-3.9c3.5,0,2.7,2.2,2.7,4C159.5,140.3,159.5,150.6,159.5,161z"/>
	<path class="st1" d="M158.4,236.8c-41.1,0-82.2,0-123.3,0c-0.9,0-1.9,0.1-2.8,0c-1.4-0.2-3.8,0.8-3.8-1.4c0-2.2,2.4-1.4,3.8-1.4
		c42,0,84,0,126.1,0C158.4,234.9,158.4,235.8,158.4,236.8z"/>
	<path class="st1" d="M565.2,413.9c0,2.7,0,5.3,0,8c0,1.1-0.4,1.7-1.6,1.7c-1.1,0-2.3,0-2.3-1.6c0-6.1,0-12.2,0-18.2
		c0-1.1,0.3-1.7,1.5-1.8c1.5,0,2.6,0.1,3.2,1.9c1,2.8,2.4,5.5,4.3,8.1c0-2.4,0-4.9,0-7.3c0-1.5,0-2.7,2.1-2.6
		c1.9,0.1,1.8,1.2,1.8,2.4c0,5.6,0,11.2,0,16.8c0,0.9,0.6,2.4-1.3,2.4c-1.4,0-2.7,0.2-3.4-1.6c-1.1-2.8-2.4-5.6-3.6-8.4
		C565.7,413.7,565.5,413.8,565.2,413.9z"/>
	<path class="st1" d="M351,412.9c0-2.5,0-5,0-7.4c0-1.5-0.1-2.7,2.1-2.7c1.9,0.1,1.9,1.1,1.9,2.4c0,5.6,0,11.2,0,16.8
		c0,1,0.4,2.3-1.3,2.4c-1.5,0.1-2.7,0-3.4-1.7c-1-2.7-2.2-5.3-4.2-7.8c0,2.4-0.1,4.8,0,7.2c0.1,1.6-0.5,2.3-2.1,2.2
		c-1.5,0-1.8-0.8-1.7-2.1c0-5.8,0-11.5,0-17.3c0-1.1,0-2.2,1.6-2.2c1.3,0,2.3-0.1,2.9,1.6c1,2.9,2.4,5.7,3.7,8.5
		C350.5,412.9,350.7,412.9,351,412.9z"/>
	<path class="st1" d="M629.6,414c0,2.5-0.1,5,0,7.5c0.1,1.7-0.6,2.2-2.2,2.1c-1.6,0-1.7-0.9-1.7-2.1c0-5.8,0-11.5,0-17.3
		c0-1.1-0.2-2.2,1.5-2.3c1.3,0,2.4,0,3,1.5c1.1,2.7,2.3,5.4,4.3,8.1c0-2.3,0.1-4.7,0-7c-0.1-1.6,0.1-2.7,2.2-2.6
		c1.9,0.1,1.8,1.2,1.8,2.5c0,5.6,0,11.2,0,16.8c0,1.1,0.2,2.3-1.5,2.3c-1.2,0-2.4,0.2-3-1.4c-1.1-2.8-2.4-5.6-3.6-8.4
		C630.1,413.8,629.9,413.9,629.6,414z"/>
	<path class="st1" d="M45,414.9c0,2.5-0.1,5,0,7.4c0.1,1.7-0.6,2.1-2.2,2.1c-1.7,0-1.6-1-1.6-2.2c0-5.6,0-11.2,0-16.8
		c0-1.1-0.5-2.6,1.6-2.6c1.4,0,2.3,0.4,2.8,1.8c1.1,2.8,2.2,5.7,4.1,8.4c0-2.7,0-5.4,0-8.1c0-1.3,0.2-2,1.8-2c1.4,0,2,0.5,1.9,1.9
		c0,5.9,0,11.9,0,17.8c0,0.9,0.1,1.9-1.3,1.9c-1.3,0-2.5,0-3-1.5c-1-2.7-2.2-5.4-3.3-8.1C45.5,414.9,45.2,414.9,45,414.9z"/>
	<path class="st4" d="M55.7,413.6c0-1.9-0.3-3.8,0.1-5.6c0.4-1.8-1.9-4.8,1.9-5.1c3.3-0.2,7.1-0.9,8.7,3.5c1.7,4.7,1.8,9.5,0.1,14.2
		c-1.2,3.4-6.7,5.3-9.9,3.8c-1.2-0.6-0.9-1.5-0.9-2.4C55.6,419.2,55.7,416.4,55.7,413.6z"/>
	<path class="st4" d="M107.3,413.5c0-2.3-0.1-4.7,0-7c0.1-1.5-0.9-3.7,2.1-3.6c2.7,0.1,1.8,2,1.9,3.3c0.1,0.8,0.1,1.6,0,2.3
		c-0.1,1.4,0.6,1.9,1.9,1.9c1.5,0,1.9-0.5,2.3-2c0.4-1.8-2.1-5.6,2-5.3c3.8,0.2,1.6,3.9,1.8,5.9c0.4,3.7,0.3,7.5,0,11.2
		c-0.1,1.5,1.6,4.1-1.8,4.3c-3.4,0.2-1.7-2.5-2.1-4c-0.1-0.6-0.1-1.2,0-1.9c0.1-1.6,0-2.6-2.1-2.6c-2.3,0-1.6,1.5-2,2.8
		c-0.7,1.9,2.2,5.9-2.3,5.6c-3.6-0.3-1.1-3.8-1.7-5.7C106.9,417,107.3,415.2,107.3,413.5z"/>
	<path class="st3" d="M318,417.2c0.8,4.1-1.5,6.5-5.6,7.2c-4.4,0.7-6.5-2-7.6-5.9c-1.1-4.2-1-8.3,1.1-12.3c1.3-2.5,3.4-3.4,6.2-3.4
		c2.5,0.1,4.1,1.4,5,3.6c0.4,0.9,1.1,2.3-0.2,2.8c-1,0.3-2.1,1.9-3.5-0.2c-2-3-3.7-1.4-4.4,1.2c-0.7,2.6-0.7,5.3,0.3,7.8
		c0.4,1,1.3,1.8,2.6,1.7c1-0.1,2-0.4,2.3-1.3c0.7-1.9-1.2-1.1-1.8-1.6c-1.4-1-1-2.8-0.5-3.8c0.8-1.6,2.8-0.5,4.2-0.7
		c1.2-0.2,2.2,0.2,2.1,1.7C317.9,415,318,415.9,318,417.2z"/>
	<path class="st3" d="M144.1,412.7c0-2.6,0-5.2,0-7.8c0-1.3,0.2-2.1,1.8-2.1c1.5,0,1.8,0.7,1.8,2c0,5.8,0,11.6,0,17.4
		c0,1.1,0.1,2.3-1.6,2.2c-1.1,0-2.1,0.2-2.6-1.3c-1-2.8-2.2-5.4-4.3-8.1c0,2.3,0,4.7,0,7c0,1.4,0,2.4-1.9,2.4
		c-1.9,0-1.9-1.1-1.9-2.5c0-5.5,0-10.9,0-16.4c0-1.1-0.5-2.7,1.5-2.7c1.4,0,2.4,0.2,2.9,1.7c1,2.8,2.2,5.6,3.4,8.4
		C143.6,412.8,143.8,412.8,144.1,412.7z"/>
	<path class="st2" d="M25.3,413.4c0,3-0.1,5.9,0,8.9c0,1.5-0.4,2.2-2.1,2.2c-1.8,0-1.6-1.1-2-2.3c-0.7-2.1,2.5-6.2-2.3-6
		c-3.8,0.2-1.3,3.8-1.9,5.9c-0.3,1.2,0.1,2.4-1.8,2.5c-2.1,0.1-2.1-1.1-2.1-2.6c0-5.6,0-11.2,0-16.8c0-1.5,0.2-2.3,2-2.3
		c1.9,0,2,1,1.9,2.4c0,1.1,0,2.2,0,3.3c-0.1,1.3,0.4,2,1.8,1.9c1.3-0.1,2.6,0,2.5-1.9c-0.1-1.1,0-2.2,0-3.3c0-1.3-0.1-2.4,1.8-2.4
		c2.1,0,2.2,1,2.2,2.6C25.2,408.1,25.3,410.7,25.3,413.4z"/>
	<path d="M870.7,413.3c0-2.7,0-5.3,0-8c0-1.3-0.1-2.4,1.8-2.5c2.1-0.1,2.3,1,2.2,2.6c-0.1,0.6,0,1.3,0,1.9c-0.2,1.9-0.1,3.2,2.6,3.2
		c2.7-0.1,1.7-1.8,2.1-3.2c0.5-1.5-1.8-4.6,2.1-4.4c3.6,0.2,1.8,3,1.9,4.6c0.3,4.7,0.1,9.4,0.1,14.1c0,1.7,0,3-2.4,2.9
		c-2.4-0.1-1.7-1.7-1.8-2.9c-0.1-1.1-0.1-2.2,0-3.3c0.2-1.9-0.6-2.3-2.4-2.3c-2,0-2.4,0.9-2.3,2.6c0.1,1.4,0,2.8,0,4.2
		c0.1,1.5-0.8,1.7-2,1.8c-1.4,0-2-0.4-2-1.8C870.7,419.5,870.7,416.4,870.7,413.3z"/>
	<path class="st1" d="M623.5,412.6c0,6.9-2.4,10.8-6.8,10.9c-4.5,0.1-7.2-4.1-7.1-11.1c0.1-6.6,2.6-10.4,6.8-10.5
		C620.9,401.9,623.5,405.8,623.5,412.6z"/>
	<path class="st2" d="M150.1,413.4c0-1.7-0.3-3.5,0.1-5.1c0.4-1.8-1.7-4.8,1.6-5.3c3.6-0.5,7.7-1,9.1,4.1c1.2,4.3,1.3,8.6,0.1,12.9
		c-1.1,4-5.9,5.9-9.9,4.5c-1.3-0.5-1-1.4-1.1-2.2C150.1,419.3,150.1,416.4,150.1,413.4z"/>
	<path class="st1" d="M289.1,424.4c1.4-6.4,2.6-12.5,3.9-18.5c0.4-1.6,0.6-3.2,3.1-3.1c2.2,0.1,2.9,0.8,3.3,2.9
		c1.1,5.3,2.5,10.6,3.5,15.9c0.2,0.9,1.5,2.6-0.8,2.8c-1.3,0.1-3,0.5-3.2-1.6c-0.1-1.9-1.3-2.2-2.9-2.1c-1.5,0.1-2.2,0.4-2.5,2.1
		C293.2,425.9,290.9,424,289.1,424.4z"/>
	<path class="st1" d="M857.7,424.3c-2-0.2-4.5,1.4-4.7-2.1c-0.1-1.6-1.2-1.5-2.3-1.5c-1.3,0-2.6-0.2-2.7,1.6
		c-0.1,2.3-1.7,2.3-3.3,2.1c-2.6-0.4-0.9-2.3-0.7-3.2c1-5.2,2.3-10.3,3.3-15.5c0.4-2.1,1.2-2.8,3.3-2.9c2.1-0.1,2.6,1,3,2.6
		C854.9,411.6,856.3,417.8,857.7,424.3z"/>
	<path class="st1" d="M831.4,422.8c0.1,0.8,0.2,1.6-1,1.6c-1.3,0-3.1,0.7-3.3-1.5c-0.2-1.7-0.8-2.4-2.6-2.3c-1.7,0-2.5,0.5-2.7,2.3
		c-0.2,2.1-2,1.6-3.3,1.5c-2.3-0.3-0.9-1.9-0.7-2.8c1.1-5.3,2.3-10.6,3.4-16c0.4-2,1.3-2.8,3.4-2.8c2.1,0,2.6,1.1,3,2.7
		C828.8,411.3,830.1,417.1,831.4,422.8z"/>
	<path class="st1" d="M318.9,424.2c1.3-6.3,2.7-12.3,3.9-18.4c0.4-1.9,1-2.9,3.3-3c2.4,0,2.8,1.2,3.2,3c1.2,5.3,2.4,10.6,3.6,15.9
		c0.2,0.9,1.1,2.3-0.6,2.6c-1.2,0.2-2.6,0.6-3.5-1.2c-1.8-3.5-3.1-3.5-5.3,0.1C322.2,425.3,320.6,424.4,318.9,424.2z"/>
	<path class="st1" d="M589.3,421.8c0.3,1.1-0.1,1.8-1.4,1.7c-1.2-0.1-2.7,0.4-2.9-1.4c-0.2-1.6-0.7-2.5-2.6-2.4
		c-1.6,0.1-2.6,0.3-2.7,2.2c-0.2,2.1-1.9,1.7-3.2,1.6c-2.4-0.2-1-1.8-0.8-2.8c1.1-5.3,2.3-10.6,3.5-15.9c0.4-1.8,1-3,3.3-2.9
		c2.2,0,2.5,1.1,2.9,2.7C586.6,410.3,587.9,416.1,589.3,421.8z"/>
	<path class="st0" d="M99.9,412.7c-0.1,3.4-0.1,5.9-1.3,8.2c-1.1,2.1-2.5,3.6-5,3.6c-2.6,0.1-4.4-1.2-5.5-3.6
		c-1.9-4.4-1.8-8.8-0.5-13.3c0.8-2.7,2.5-4.7,5.7-4.7c3.4,0,5.1,2.2,5.9,5.1C99.7,409.8,99.7,411.7,99.9,412.7z"/>
	<path class="st0" d="M40.1,424.2c-2.1,0.3-4.3,1.4-4.5-2.1c-0.1-1.6-1.5-1.3-2.5-1.3c-1.1-0.1-2.2,0-2.3,1.5
		c-0.1,2.1-1.5,2.6-3.2,2.2c-2.6-0.7-0.6-2.3-0.4-3.3c0.9-5.2,2.1-10.4,3.2-15.6c0.3-1.6,0.7-2.8,2.9-2.8c2.1,0,2.6,1,2.9,2.6
		C37.4,411.6,38.7,417.8,40.1,424.2z"/>
	<path class="st0" d="M134.1,422.8c0,0.5,0.4,1.5-0.8,1.6c-1.1,0-2.3,0.6-3.3-0.9c-2.4-3.8-3.3-3.9-5.2-0.2
		c-0.9,1.7-2.1,1.2-3.1,1.1c-1.9-0.3-0.8-1.8-0.6-2.5c1.1-5.7,2.5-11.3,3.6-16.9c0.4-2,1.5-2,3-2c1.4,0,2.3,0.3,2.6,1.9
		C131.5,410.7,132.8,416.7,134.1,422.8z"/>
	<path class="st1" d="M363.4,424.5c-2.7-0.1-4.5-0.9-5.4-3c-0.6-1.3-1.7-3.1-0.1-4.2c1.4-0.9,2.8-0.6,3.7,1.4c0.6,1.4,2,1.6,3,0.3
		c0.9-1.2,0.5-2.4-0.9-3c-1.3-0.6-2.6-1-3.8-1.8c-2.5-1.8-2.8-4.4-2.1-7.1c0.6-2.5,2.4-3.9,5-4.1c2.4-0.1,4.2,0.8,5.3,3
		c0.4,1,1.2,2.2,0.4,3c-0.9,0.9-2.4,0.9-3.4,0.1c-1.1-0.8-2.4-2.5-3.3-0.7c-1.1,2.2,1.6,2.1,2.8,2.7c4.8,2.2,6.2,8.4,2.6,11.9
		C366,424,364.7,424.7,363.4,424.5z"/>
	<path class="st1" d="M832.9,413.2c0-1.4-0.3-2.9,0.1-4.2c0.7-2.1-2.5-6,2.7-6.2c6.3-0.2,7.8,0.6,8.4,5.3c0.7,5-0.8,8.4-4.6,8.6
		c-3.7,0.2-2.2,2.5-2.5,4.2c-0.2,1.5,0.8,3.6-2.2,3.5c-2.7-0.1-1.8-2-1.9-3.3C832.8,418.5,832.9,415.9,832.9,413.2z"/>
	<path class="st5" d="M860.7,416.1c0-1.9,0-3.7,0-5.6c0.1-1.7,0.1-3.1-2.3-2.9c-2.4,0.2-1.6-1.7-1.8-2.9c-0.2-1.5,0.7-1.8,2-1.8
		c2.8,0,5.6,0.1,8.4,0c1.6-0.1,2.3,0.5,2.1,2.1c-0.1,1.1,0.4,2.8-1.6,2.6c-2.7-0.3-2.5,1.4-2.5,3.2c0,3.7,0,7.5,0,11.2
		c0,1.7-0.4,2.6-2.3,2.5c-1.8,0-2-1-2-2.4C860.7,420.1,860.7,418.1,860.7,416.1z"/>
	<path class="st3" d="M708.5,334.1c-0.1,3.3-3.3,5.9-7.2,5.9c-3.9-0.1-6.9-2.9-6.8-6.3c0.1-3.3,3.3-5.9,7.2-5.9
		C705.6,327.9,708.6,330.8,708.5,334.1z"/>
	<path class="st3" d="M471.6,327.8c3.9,0,7,2.7,7,6.1c0,3.3-3.2,6.1-7,6c-3.9,0-7-2.7-7-6.1C464.6,330.5,467.7,327.8,471.6,327.8z"
		/>
	<path class="st3" d="M190.8,340c-3.9-0.1-6.9-2.8-6.9-6.2c0.1-3.4,3.2-6,7.1-5.9c3.9,0.1,6.9,2.8,6.9,6.2
		C197.9,337.4,194.7,340,190.8,340z"/>
	<path class="st0" d="M884.8,403.4c3.8-0.5,3.8-0.5,7,5.6c2.3-1.9,0.9-8,6.9-5.7c-0.5,1.4-1,2.9-1.6,4.4c-2,4.6-4.1,9.1-3.3,14.3
		c0.2,1.3,0.2,2.5-1.8,2.5c-1.4,0-2.6-0.2-2.3-2C890.9,415.4,887,409.6,884.8,403.4z"/>
	<path class="st1" d="M592.9,414.7c0-1.9-0.1-3.7,0-5.6c0.1-1.7-0.2-2.8-2.2-2.5c-2.1,0.3-2.1-1-2.2-2.6c-0.1-2.2,1.2-2.1,2.7-2.1
		c2.6,0,5.3,0.1,7.9,0c1.6,0,2.2,0.6,2.1,2.2c-0.1,1.3,0.1,2.7-1.8,2.5c-2.6-0.3-2.6,1.2-2.6,3.1c0.1,3.7,0,7.5,0,11.2
		c0,1.4,0.2,2.7-2,2.7c-2.3,0-2-1.4-2-2.8C592.9,418.8,592.9,416.8,592.9,414.7z"/>
	<path d="M374.4,415.8c0-1.9,0-3.8,0-5.6c0-1.5,0-2.9-2.1-2.6c-2.2,0.3-2-1.2-2.1-2.7c-0.1-2.2,1.3-2,2.7-2c2.5,0,5,0,7.5,0
		c1.3,0,2.5,0,2.4,1.9c-0.1,1.3,0.4,3.1-1.9,2.8c-2.3-0.3-2.4,1.1-2.4,2.9c0.1,3.7,0,7.5,0,11.3c0,1.4,0.3,2.8-2,2.8
		c-2.2,0-2.2-1.1-2.1-2.6C374.5,419.9,374.4,417.8,374.4,415.8z"/>
	<path class="st0" d="M78,415.7c0-1.9-0.1-3.7,0-5.6c0.1-1.6-0.1-2.7-2.2-2.6c-2.5,0.2-1.5-1.8-1.7-3c-0.2-1.6,0.8-1.7,2-1.7
		c2.7,0,5.3,0,8,0c1.2,0,2.2,0.2,2,1.8c-0.1,1.3,0.5,3.1-1.8,2.9c-2.8-0.2-2.4,1.6-2.4,3.3c0,3.7,0,7.5,0,11.2
		c0,1.4-0.1,2.4-1.9,2.4c-1.7,0-2.2-0.6-2.1-2.2C78,420.1,78,417.9,78,415.7z"/>
	<path d="M339.1,413.9c0,2.8-0.1,5.6,0,8.4c0,1.5-0.4,2.2-2.1,2.2c-1.7,0-2.1-0.6-2.1-2.2c0.1-5.8,0.1-11.5,0-17.3
		c0-1.5,0.3-2.2,2.1-2.2c1.6,0,2.2,0.6,2.1,2.2C339,408,339.1,410.9,339.1,413.9z"/>
	<path d="M607.2,412.4c0,2.6,0.1,5.3,0,7.9c-0.1,1.3,0.8,3.2-1.9,3.3c-3,0.1-2.2-2-2.2-3.5c-0.1-5-0.1-9.9,0-14.9
		c0-1.4-0.7-3.2,1.9-3.3c3-0.1,2.1,2,2.2,3.5C607.3,407.7,607.2,410,607.2,412.4z"/>
	<path class="st6" d="M63.7,413.8c-0.1,1.2-0.1,2.1-0.3,3c-0.3,1.3-0.6,3.1-2.4,2.9c-2.2-0.2-1.2-2.1-1.3-3.3c-0.2-2-0.1-4,0-6
		c0-0.9-0.6-2.4,1-2.6c1.5-0.2,2.2,0.9,2.5,2.2C63.5,411.3,63.6,412.6,63.7,413.8z"/>
	<path class="st7" d="M619.4,412.6c0,1,0,1.9-0.1,2.8c-0.2,1.6-0.7,3.3-2.6,3.4c-2.1,0.1-2.3-1.8-2.7-3.3c-0.2-0.9-0.3-1.9-0.2-2.8
		c0.2-2.4-0.4-5.9,3-5.8C619.7,406.9,619.2,410.3,619.4,412.6z"/>
	<path class="st6" d="M157.9,414c-0.1,1.1-0.1,2.3-0.3,3.5c-0.2,1.3-1,2.3-2.5,2.2c-1.7-0.1-1.1-1.6-1.1-2.5c-0.1-2.3-0.1-4.6,0-6.9
		c0-0.9-0.7-2.4,0.9-2.6c1.7-0.2,2.5,1,2.7,2.5C157.8,411.4,157.8,412.6,157.9,414z"/>
	<path class="st8" d="M296.1,410c0.8,1.7,2.2,3.2,0.8,5c-0.2,0.2-1.1,0.2-1.3,0C294.6,413.3,295.8,411.6,296.1,410z"/>
	<path class="st9" d="M850.9,409.1c-0.2,2.4,1.8,4,0.2,5.9c-0.2,0.2-1.5,0-1.6-0.2C848.9,413,849.6,411.3,850.9,409.1z"/>
	<path class="st10" d="M824.4,409.8c0.4,1.7,2.1,3.3,1,5.1c-0.2,0.3-1.5,0.3-1.7,0C822.5,413.2,824.1,411.6,824.4,409.8z"/>
	<path class="st10" d="M326.1,409.8c0.3,1.8,2.1,3.3,0.9,5.2c-0.2,0.3-1.5,0.2-1.7,0C324.2,413.1,325.7,411.5,326.1,409.8z"/>
	<path class="st11" d="M582.3,408.2c0.6,2.3,0.9,3.7,1.3,5.2c0.3,1.1,0.1,1.8-1.3,1.8c-1.3,0-1.5-0.7-1.3-1.8
		C581.4,411.9,581.7,410.4,582.3,408.2z"/>
	<path class="st12" d="M95.9,414.4c-0.3,1.6,0.6,5.1-2.4,5.1c-3.3,0.1-2.4-3.6-2.9-5.8c-0.1-0.6,0-1.2,0.2-1.8
		c0.4-1.7,0.2-4.2,2.7-4.2c2.4,0.1,2.3,2.5,2.5,4.3C95.9,412.6,95.9,413.2,95.9,414.4z"/>
	<path class="st13" d="M33.3,409.9c0.4,1.6,1.5,3.2,0.8,5c-0.1,0.2-1.5,0.4-1.6,0.1C31.4,413.2,32.7,411.6,33.3,409.9z"/>
	<path class="st14" d="M127.1,409.7c1.7,1.5,1.8,3.3,1.4,5.1c0,0.2-1.4,0.4-1.5,0.2C125.8,413.3,126.9,411.6,127.1,409.7z"/>
	<path class="st12" d="M838.4,412.2c-1.5,0.2-1.5-0.8-1.4-1.7c0.2-1-0.9-2.7,1.1-2.9c1.1-0.1,1.6,0.7,1.8,1.7
		C840.1,410.7,839.9,411.8,838.4,412.2z"/>
</g>
</svg>
