<svg id="Layer_1" data-name="Layer 1" xmlns="http://www.w3.org/2000/svg" xmlns:xlink="http://www.w3.org/1999/xlink" viewBox="0 0 1306 678"><defs><style>.cls-1{fill:url(#linear-gradient);}.cls-2{fill:url(#linear-gradient-2);}.cls-3{mask:url(#mask);}.cls-4{fill:#7c7c7c;}.cls-5{fill:#0a0a0a;}.cls-6{fill:#1c1b1b;}.cls-7{fill:#161616;}.cls-8{fill:#474646;}.cls-9{fill:#230000;}.cls-10{fill:red;}.cls-11{fill:#870000;}.cls-12{fill:#890000;}.cls-13{fill:#e00000;}.cls-14{fill:#bf0000;}.cls-15{fill:#a50000;}.cls-16{fill:#160707;stroke:#160707;stroke-miterlimit:10;}.cls-17{fill:url(#linear-gradient-3);}.cls-18{fill:url(#linear-gradient-4);}.cls-19{fill:url(#linear-gradient-5);}</style><linearGradient id="linear-gradient" x1="592.42" y1="809.39" x2="996.44" y2="109.61" gradientUnits="userSpaceOnUse"><stop offset="0"/><stop offset="0.13" stop-color="#040404"/><stop offset="0.25" stop-color="#101010"/><stop offset="0.38" stop-color="#242424"/><stop offset="0.5" stop-color="#3f3f3f"/><stop offset="0.63" stop-color="#636363"/><stop offset="0.75" stop-color="#8f8f8f"/><stop offset="0.88" stop-color="#c3c3c3"/><stop offset="1" stop-color="#fdfdfd"/><stop offset="1" stop-color="#fff"/></linearGradient><linearGradient id="linear-gradient-2" x1="653" x2="653" y2="679" gradientUnits="userSpaceOnUse"><stop offset="0" stop-color="#ffc494"/><stop offset="1" stop-color="#ff8455" stop-opacity="0.8"/></linearGradient><mask id="mask" x="325" y="264" width="944" height="500.81" maskUnits="userSpaceOnUse"><rect class="cls-1" x="325" y="264" width="938.85" height="391"/></mask><linearGradient id="linear-gradient-3" y1="491.21" x2="1306" y2="491.21" gradientUnits="userSpaceOnUse"><stop offset="0" stop-color="red"/><stop offset="1" stop-color="#ff8455" stop-opacity="0.8"/></linearGradient><linearGradient id="linear-gradient-4" x1="1" y1="510.21" x2="1306" y2="510.21" gradientUnits="userSpaceOnUse"><stop offset="0"/><stop offset="1" stop-color="#ff8455" stop-opacity="0.8"/></linearGradient><linearGradient id="linear-gradient-5" x1="798.08" y1="65.05" x2="1303" y2="65.05" xlink:href="#linear-gradient-4"/></defs><title>backgroundetpartive</title><rect class="cls-2" width="1306" height="679"/><g class="cls-3"><polygon points="432.7 268.74 629.18 268.74 577.21 358.74 385.17 358.74 432.7 268.74"/><polygon class="cls-4" points="628.86 268.42 577.84 358.74 679.57 358.74 628.86 268.42"/><polygon class="cls-4" points="679.25 358.1 628.23 448.42 730.27 448.42 679.25 358.1"/><polygon class="cls-4" points="628.86 448.1 577.84 538.42 679.57 538.42 628.86 448.1"/><polygon class="cls-5" points="527.77 448.1 476.75 538.42 578.79 538.42 527.77 448.1"/><polygon class="cls-5" points="426.68 448.1 375.66 538.42 477.7 538.42 426.68 448.1"/><polygon class="cls-6" points="628.86 449.05 679.57 358.74 577.84 358.74 628.86 449.05"/><polygon class="cls-7" points="578.16 538.74 629.18 448.42 527.46 448.42 578.16 538.74"/><polygon points="477.38 538.74 528.09 448.42 426.37 448.42 477.38 538.74"/><polygon points="376.29 538.74 427 448.42 325.27 448.42 376.29 538.74"/><polygon points="679.25 538.74 730.27 448.42 628.23 448.42 679.25 538.74"/><polygon class="cls-8" points="687.81 560.28 636.79 650.6 738.51 650.6 687.81 560.28"/><polygon points="586.72 560.28 535.7 650.6 637.74 650.6 586.72 560.28"/><polygon class="cls-8" points="485.63 560.28 434.6 650.6 536.65 650.6 485.63 560.28"/><polygon class="cls-5" points="637.1 650.92 688.12 560.6 586.4 560.6 637.1 650.92"/><polygon class="cls-7" points="536.01 650.92 587.03 560.6 485.31 560.6 536.01 650.92"/><polygon points="435.24 650.92 485.94 560.6 384.22 560.6 435.24 650.92"/><polygon class="cls-8" points="746.75 672.47 695.73 762.78 797.45 762.78 746.75 672.47"/><polygon class="cls-8" points="645.66 672.47 594.64 762.78 696.68 762.78 645.66 672.47"/><polygon class="cls-8" points="544.57 672.47 493.55 762.78 595.59 762.78 544.57 672.47"/><polygon points="696.05 763.1 747.07 673.1 645.34 673.1 696.05 763.1"/><polygon points="594.96 763.1 645.98 673.1 544.25 673.1 594.96 763.1"/><polygon points="494.18 763.1 544.88 673.1 443.16 673.1 494.18 763.1"/><polygon class="cls-9" points="1161.57 268.74 965.09 268.74 1017.07 358.74 1209.11 358.74 1161.57 268.74"/><polygon class="cls-4" points="965.41 268.42 1016.43 358.74 914.71 358.74 965.41 268.42"/><polygon class="cls-4" points="915.02 358.1 966.04 448.42 864 448.42 915.02 358.1"/><polygon class="cls-10" points="965.41 448.1 1016.43 538.42 914.71 538.42 965.41 448.1"/><polygon class="cls-11" points="1066.5 448.1 1117.52 538.42 1015.48 538.42 1066.5 448.1"/><polygon class="cls-12" points="1167.59 448.1 1218.61 538.42 1116.57 538.42 1167.59 448.1"/><polygon class="cls-6" points="965.41 449.05 914.71 358.74 1016.43 358.74 965.41 449.05"/><polygon class="cls-13" points="1016.11 538.74 965.09 448.42 1067.13 448.42 1016.11 538.74"/><polygon class="cls-13" points="1117.2 538.74 1066.18 448.42 1167.91 448.42 1117.2 538.74"/><polygon class="cls-14" points="1217.98 538.74 1167.28 448.42 1269 448.42 1217.98 538.74"/><polygon points="915.02 538.74 864 448.42 966.04 448.42 915.02 538.74"/><polygon class="cls-10" points="906.47 560.28 957.49 650.6 855.76 650.6 906.47 560.28"/><polygon class="cls-14" points="1007.56 560.28 1058.58 650.6 956.54 650.6 1007.56 560.28"/><polygon class="cls-13" points="1108.65 560.28 1159.67 650.6 1057.63 650.6 1108.65 560.28"/><polygon class="cls-13" points="957.17 650.92 906.15 560.6 1008.19 560.6 957.17 650.92"/><polygon class="cls-12" points="1058.26 650.92 1007.24 560.6 1108.97 560.6 1058.26 650.92"/><polygon class="cls-14" points="1159.04 650.92 1108.33 560.6 1210.06 560.6 1159.04 650.92"/><polygon class="cls-13" points="847.52 672.47 898.54 762.78 796.82 762.78 847.52 672.47"/><polygon class="cls-15" points="948.62 672.47 999.64 762.78 897.91 762.78 948.62 672.47"/><polygon class="cls-15" points="1049.71 672.47 1100.73 762.78 998.68 762.78 1049.71 672.47"/><polygon class="cls-10" points="898.23 763.1 847.21 673.1 949.25 673.1 898.23 763.1"/><polygon class="cls-14" points="999.32 763.1 948.3 673.1 1050.02 673.1 999.32 763.1"/><polygon class="cls-13" points="1100.09 763.1 1049.39 673.1 1151.11 673.1 1100.09 763.1"/><polygon class="cls-16" points="678.3 538.42 796.19 762.78 796.19 448.42 728.69 448.42 678.3 538.42"/><polygon class="cls-16" points="865.59 448.42 798.09 448.42 798.09 762.78 915.97 538.42 865.59 448.42"/></g><path class="cls-17" d="M0,324.75,141.13,559.81a73.77,73.77,0,0,0,65.17,35.72L1306,567.22v60L70.4,657.67,0,353.59Z"/><path class="cls-18" d="M1,342.42l100.67,239A84.55,84.55,0,0,0,182.9,633L1306,589.58V678H1Z"/><path class="cls-19" d="M798.08,0l444.44,19.17A52.36,52.36,0,0,1,1291.92,63L1303,130.1V0Z"/></svg>